<svg xmlns="http://www.w3.org/2000/svg" xmlns:xlink="http://www.w3.org/1999/xlink" viewBox="0 0 595 419"><defs><style>.cls-1{isolation:isolate;}.cls-2{fill:url(#linear-gradient);}.cls-3,.cls-4{fill:#fff;}.cls-3{mix-blend-mode:soft-light;}.cls-5{fill:#f39661;}.cls-6{fill:#824d39;}.cls-7{fill:#89523c;}.cls-8{fill:#e30617;}.cls-9{fill:#9a9999;}.cls-12,.cls-9{mix-blend-mode:screen;}.cls-10{fill:#040502;}.cls-11{fill:#7e7e7e;mix-blend-mode:multiply;}.cls-12{fill:#d1d1d1;}.cls-13{font-size:32px;fill:#e30613;font-family:AllianzNeo-Bold, Allianz Neo;font-weight:700;}.cls-14{letter-spacing:-0.03em;}.cls-15{letter-spacing:-0.05em;}</style><linearGradient id="linear-gradient" x1="300.2" y1="425.01" x2="300.2" y2="-0.19" gradientUnits="userSpaceOnUse"><stop offset="0.01" stop-color="#41afd9"/><stop offset="0.09" stop-color="#5dbbe0"/><stop offset="0.22" stop-color="#83cbe9"/><stop offset="0.36" stop-color="#a2d8f0"/><stop offset="0.5" stop-color="#bae2f6"/><stop offset="0.65" stop-color="#cce9fa"/><stop offset="0.81" stop-color="#d6eefc"/><stop offset="1" stop-color="#d9effd"/></linearGradient></defs><g class="cls-1"><g id="Deer"><rect class="cls-2" x="-2.99" y="-0.19" width="606.39" height="425.2"/><path class="cls-3" d="M633.05,342c-77.22-15.05-205.17-13.77-294.16,11.23C249.47,378.31,165.67,340,144.41,336c-18-3.41-89.8-13.73-176.93-3.66v71H633.05Z"/><path class="cls-4" d="M601.89,382.08c-79.06-10.12-144.23.22-160.55,3.64-19.27,4-95.23,42.35-176.27,17.23C184.48,378,68.65,376.67-1.36,391.69v29.53H601.89Z"/><path class="cls-4" d="M98.51,369.66c-2.78-3.66-7.18-8.49-12.28-13.9-1.34-1.42-.5-2.68,1.92-2.76l1.17,0c2.41-.11,3.29-1.31,1.89-2.71-5-5-10.53-10.59-15.82-16.21-1.48-1.58-.75-2.84,1.59-2.75l1.73.07c2.35.11,3-1.07,1.48-2.68-3.81-4-7.46-8.12-10.7-12.09a2.75,2.75,0,0,0-4.53,0c-3.23,4-6.88,8.06-10.69,12.09-1.53,1.61-.87,2.79,1.48,2.68l1.73-.07c2.34-.09,3.07,1.17,1.59,2.75-5.29,5.62-10.81,11.19-15.82,16.21-1.4,1.4-.52,2.6,1.89,2.71l1.17,0c2.42.08,3.26,1.34,1.92,2.76-5.1,5.41-9.5,10.24-12.28,13.9-.72.93.49,2.2,2.52,2.84a101.83,101.83,0,0,0,18.08,3.75c-.43,3-.87,6.08-1.3,9.11a56.92,56.92,0,0,0,24,0c-.43-3-.87-6.07-1.3-9.11A101.83,101.83,0,0,0,96,372.5C98,371.86,99.23,370.59,98.51,369.66Z"/><path class="cls-4" d="M36.91,380.46c-.48-.66-1.25-1.54-2.13-2.53-.24-.26-.09-.49.33-.5h.2c.42,0,.58-.24.33-.49-.87-.92-1.83-1.93-2.74-3-.26-.28-.13-.51.27-.5l.3,0c.41,0,.52-.2.26-.49-.66-.74-1.3-1.48-1.86-2.2a.46.46,0,0,0-.79,0c-.56.72-1.19,1.46-1.85,2.2-.27.29-.15.5.25.49l.3,0c.41,0,.54.22.28.5-.92,1-1.88,2-2.75,3-.24.25-.09.47.33.49h.2c.43,0,.57.24.34.5-.89,1-1.65,1.87-2.13,2.53-.13.17.08.4.43.52a17,17,0,0,0,3.14.68c-.07.56-.15,5.65-.22,6.2a9.42,9.42,0,0,0,4.16,0c-.08-.55-.15-5.64-.23-6.2a16.63,16.63,0,0,0,3.14-.68C36.83,380.86,37,380.63,36.91,380.46Z"/><path class="cls-4" d="M147.55,371.26c-.9-1.15-2.33-2.68-4-4.4-.43-.45-.16-.85.62-.87l.38,0c.78,0,1.07-.41.61-.86-1.62-1.59-3.41-3.35-5.12-5.13-.48-.5-.24-.9.52-.87l.55,0c.77,0,1-.34.49-.86-1.24-1.27-2.42-2.57-3.47-3.83a.9.9,0,0,0-1.46,0c-1.05,1.26-2.23,2.56-3.47,3.83-.49.52-.28.89.48.86l.56,0c.76,0,1,.37.51.87-1.71,1.78-3.5,3.54-5.12,5.13-.45.45-.17.83.62.86l.37,0c.79,0,1.06.42.63.87-1.66,1.72-3.08,3.25-4,4.4-.23.3.16.7.81.91a35,35,0,0,0,5.86,1.19c-.14,1-.28,9.82-.42,10.78a18.79,18.79,0,0,0,7.76,0c-.14-1-.28-9.82-.42-10.78a34.7,34.7,0,0,0,5.85-1.19C147.39,372,147.78,371.56,147.55,371.26Z"/><path class="cls-4" d="M195.52,366.75c-1.66-2.13-4.29-4.95-7.33-8.11-.8-.83-.3-1.56,1.14-1.61l.7,0c1.44-.07,2-.76,1.13-1.58-3-2.94-6.28-6.18-9.44-9.46-.88-.92-.45-1.66.95-1.61l1,0c1.4.06,1.79-.63.89-1.57-2.28-2.35-4.46-4.73-6.39-7.05a1.66,1.66,0,0,0-2.7,0c-1.93,2.32-4.11,4.7-6.38,7.05-.92.94-.53,1.63.88,1.57l1,0c1.4-.05,1.83.69.95,1.61-3.16,3.28-6.45,6.52-9.44,9.46-.84.82-.31,1.51,1.13,1.58l.69,0c1.45.05,1.95.78,1.15,1.61-3,3.16-5.67,6-7.33,8.11-.43.55.29,1.29,1.5,1.66a61.8,61.8,0,0,0,10.8,2.2c-.26,1.77-.52,18.08-.78,19.86a35.14,35.14,0,0,0,14.3,0c-.26-1.78-.52-18.09-.78-19.86a61.8,61.8,0,0,0,10.8-2.2C195.23,368,195.94,367.3,195.52,366.75Z"/><path class="cls-4" d="M17.08,379.86c-.89-1.24-2.29-2.89-3.93-4.73-.43-.48-.16-.91.62-.93l.37,0c.77,0,1.06-.44.61-.92-1.6-1.71-3.37-3.6-5.06-5.51-.48-.53-.24-1,.5-.93l.56,0c.75,0,1-.36.47-.91-1.22-1.37-2.39-2.76-3.42-4.11a.85.85,0,0,0-1.45,0c-1,1.35-2.2,2.74-3.42,4.11-.49.55-.28.95.47.91l.55,0c.75,0,1,.4.51.93-1.69,1.91-3.46,3.8-5.06,5.51a1.58,1.58,0,0,0-.12.15v.51a1,1,0,0,0,.73.26l.37,0c.78,0,1,.45.61.93-.61.69-1.17,1.34-1.71,2v4.14a30.8,30.8,0,0,0,4.38.86c-.14,1-.28,10.53-.42,11.56a17.12,17.12,0,0,0,7.67,0c-.14-1-.28-10.53-.42-11.56a30.85,30.85,0,0,0,5.79-1.28C16.93,380.61,17.31,380.17,17.08,379.86Z"/><path class="cls-4" d="M115.65,376.28c-.48-.66-1.25-1.54-2.13-2.53-.24-.26-.09-.49.33-.5h.2c.42,0,.57-.23.33-.49-.87-.92-1.83-1.93-2.75-2.95-.25-.29-.13-.52.28-.5h.3c.41,0,.52-.2.26-.49-.66-.74-1.3-1.48-1.86-2.2a.47.47,0,0,0-.79,0c-.56.72-1.19,1.46-1.85,2.2-.27.29-.16.51.25.49h.3c.41,0,.54.21.28.5-.92,1-1.88,2-2.75,2.95-.24.26-.09.47.33.49h.2c.42,0,.57.24.34.5-.89,1-1.65,1.87-2.14,2.53-.12.17.09.41.44.52a17.67,17.67,0,0,0,3.14.69c-.07.55-.15,5.64-.22,6.19a9.42,9.42,0,0,0,4.16,0c-.08-.55-.15-5.64-.23-6.19a17.67,17.67,0,0,0,3.14-.69C115.56,376.69,115.77,376.45,115.65,376.28Z"/><path class="cls-4" d="M612.69,367.35c-2.77-3.74-7.17-8.68-12.28-14.22-1.34-1.46-.5-2.74,1.92-2.83l1.17,0c2.41-.11,3.3-1.34,1.89-2.77-5-5.14-10.52-10.84-15.81-16.59-1.48-1.62-.75-2.9,1.59-2.81l1.72.07c2.36.1,3-1.1,1.49-2.75-3.82-4.12-7.47-8.31-10.7-12.37a2.71,2.71,0,0,0-4.53,0c-3.23,4.06-6.89,8.25-10.7,12.37-1.52,1.65-.87,2.85,1.48,2.75l1.73-.07c2.34-.09,3.07,1.19,1.59,2.81-5.29,5.75-10.81,11.45-15.82,16.59-1.4,1.43-.52,2.66,1.9,2.77l1.16,0c2.43.09,3.26,1.37,1.92,2.83-5.1,5.54-9.5,10.48-12.28,14.22-.71,1,.49,2.26,2.52,2.91a99,99,0,0,0,18.08,3.84q-.65,4.66-1.3,9.33a56,56,0,0,0,24,0q-.64-4.67-1.3-9.33a99,99,0,0,0,18.09-3.84C612.2,369.61,613.41,368.31,612.69,367.35Z"/><path class="cls-4" d="M491.7,372.27c-2-2.72-5.24-6.3-8.95-10.32-1-1.06-.37-2,1.39-2.05l.86,0c1.76-.08,2.4-1,1.37-2-3.64-3.73-7.67-7.86-11.52-12-1.08-1.17-.55-2.11,1.16-2l1.25.05c1.72.08,2.2-.8,1.08-2-2.77-3-5.44-6-7.79-9a2,2,0,0,0-3.3,0c-2.36,2.95-5,6-7.8,9-1.11,1.19-.64,2.07,1.08,2l1.26-.05c1.7-.07,2.23.87,1.16,2-3.86,4.18-7.88,8.31-11.53,12-1,1-.38,1.93,1.38,2l.85,0c1.77.06,2.37,1,1.4,2.05-3.72,4-6.93,7.6-8.95,10.32-.52.69.35,1.63,1.83,2.11a73,73,0,0,0,13.18,2.78c-.31,2.26-.63,4.51-.94,6.77a40.8,40.8,0,0,0,17.46,0c-.32-2.26-.63-4.51-.95-6.77a72.87,72.87,0,0,0,13.18-2.78C491.34,373.9,492.22,373,491.7,372.27Z"/><path class="cls-4" d="M518.13,372.37c-.48-.67-1.25-1.56-2.13-2.56-.24-.26-.09-.5.33-.51h.2c.42,0,.57-.24.33-.5-.87-.92-1.83-2-2.75-3-.25-.29-.13-.52.28-.5h.3c.41,0,.52-.2.26-.5-.67-.74-1.3-1.49-1.86-2.23a.47.47,0,0,0-.79,0c-.56.74-1.19,1.49-1.86,2.23-.26.3-.15.52.26.5h.3c.41,0,.53.21.28.5-.92,1-1.88,2.07-2.75,3-.24.26-.09.48.33.5h.2c.42,0,.57.25.34.51-.89,1-1.65,1.89-2.14,2.56-.12.17.09.41.44.52a16.87,16.87,0,0,0,3.14.7c-.07.56-.15,5.71-.22,6.27a9.42,9.42,0,0,0,4.16,0c-.08-.56-.15-5.71-.23-6.27a16.87,16.87,0,0,0,3.14-.7C518,372.78,518.25,372.54,518.13,372.37Z"/><path class="cls-4" d="M544.56,367.7c-.9-1.2-2.32-2.8-4-4.59-.44-.47-.17-.89.62-.91l.38,0c.78,0,1.06-.43.61-.89-1.62-1.67-3.41-3.5-5.12-5.37-.48-.52-.25-.93.51-.9l.56,0c.76,0,1-.36.48-.89-1.23-1.33-2.42-2.68-3.46-4a.88.88,0,0,0-1.47,0c-1.05,1.32-2.23,2.67-3.46,4-.5.53-.29.92.48.89l.56,0c.75,0,1,.38.51.9-1.71,1.87-3.5,3.7-5.12,5.37-.46.46-.17.85.61.89l.38,0c.79,0,1.05.44.62.91-1.65,1.79-3.08,3.39-4,4.59-.23.31.16.73.82.94a32.09,32.09,0,0,0,5.86,1.25c-.15,1-.29,10.24-.42,11.25a18.09,18.09,0,0,0,7.75,0c-.14-1-.28-10.25-.42-11.25a32.45,32.45,0,0,0,5.86-1.25C544.4,368.43,544.79,368,544.56,367.7Z"/><g id="Snow"><path class="cls-4" d="M180.49,10.19c-4.62,0-4.62,7.16,0,7.16S185.1,10.19,180.49,10.19Z"/><path class="cls-4" d="M40.19,51.71c-4.62,0-4.62,7.16,0,7.16S44.81,51.71,40.19,51.71Z"/><path class="cls-4" d="M265,124.72c-4.61,0-4.61,7.16,0,7.16S269.57,124.72,265,124.72Z"/><path class="cls-4" d="M237.75,45.27c-4.61,0-4.61,7.16,0,7.16S242.37,45.27,237.75,45.27Z"/><path class="cls-4" d="M37.33,157.65c-4.62,0-4.62,7.16,0,7.16S41.94,157.65,37.33,157.65Z"/><path class="cls-4" d="M186.22,134c-4.62,0-4.62,7.16,0,7.16S190.83,134,186.22,134Z"/><path class="cls-4" d="M132.53,110.41c-4.62,0-4.62,7.16,0,7.16S137.15,110.41,132.53,110.41Z"/><path class="cls-4" d="M261.37,5.54a1.79,1.79,0,0,0,0,3.58A1.79,1.79,0,0,0,261.37,5.54Z"/><path class="cls-4" d="M35.89,4.83a1.79,1.79,0,0,0,0,3.58A1.79,1.79,0,0,0,35.89,4.83Z"/><path class="cls-4" d="M101.75,18a1.79,1.79,0,0,0,0,3.58A1.79,1.79,0,0,0,101.75,18Z"/><path class="cls-4" d="M51.64,54.69a1.79,1.79,0,0,0,0,3.58A1.79,1.79,0,0,0,51.64,54.69Z"/><path class="cls-4" d="M140.88,70a1.79,1.79,0,0,0,0,3.58A1.79,1.79,0,0,0,140.88,70Z"/><path class="cls-4" d="M182.88,42.29a1.79,1.79,0,0,0,0,3.58A1.79,1.79,0,0,0,182.88,42.29Z"/><path class="cls-4" d="M127,38.47a1.79,1.79,0,0,0,0,3.58A1.79,1.79,0,0,0,127,38.47Z"/><path class="cls-4" d="M84.09,101.94a1.79,1.79,0,0,0,0,3.58A1.79,1.79,0,0,0,84.09,101.94Z"/><path class="cls-4" d="M178.58,102.42a1.79,1.79,0,0,0,0,3.57A1.79,1.79,0,0,0,178.58,102.42Z"/><path class="cls-4" d="M228.21,100.51a1.79,1.79,0,0,0,0,3.58A1.79,1.79,0,0,0,228.21,100.51Z"/><path class="cls-4" d="M251.59,70a1.79,1.79,0,0,0,0,3.58A1.79,1.79,0,0,0,251.59,70Z"/><path class="cls-4" d="M280.22,121a1.79,1.79,0,0,0,0,3.57A1.79,1.79,0,0,0,280.22,121Z"/><path class="cls-4" d="M232,178.29a1.79,1.79,0,0,0,0,3.58A1.79,1.79,0,0,0,232,178.29Z"/><path class="cls-4" d="M146.13,174a1.79,1.79,0,0,0,0,3.58A1.79,1.79,0,0,0,146.13,174Z"/><path class="cls-4" d="M98.41,163a1.79,1.79,0,0,0,0,3.58A1.79,1.79,0,0,0,98.41,163Z"/><path class="cls-4" d="M108.91,146.32a1.79,1.79,0,0,0,0,3.58A1.79,1.79,0,0,0,108.91,146.32Z"/><path class="cls-4" d="M55.46,134.39a1.79,1.79,0,0,0,0,3.58A1.79,1.79,0,0,0,55.46,134.39Z"/><path class="cls-4" d="M21.1,104.32a1.79,1.79,0,0,0,0,3.58A1.79,1.79,0,0,0,21.1,104.32Z"/><path class="cls-4" d="M67.87,67.1a1.79,1.79,0,0,0,0,3.58A1.79,1.79,0,0,0,67.87,67.1Z"/><path class="cls-4" d="M5.83,6a1.79,1.79,0,0,0,0,3.58A1.79,1.79,0,0,0,5.83,6Z"/><path class="cls-4" d="M104.14,77.6a1.79,1.79,0,0,0,0,3.58A1.79,1.79,0,0,0,104.14,77.6Z"/><path class="cls-4" d="M22.53,157.29a1.79,1.79,0,0,0,0,3.58A1.79,1.79,0,0,0,22.53,157.29Z"/><path class="cls-4" d="M20.15,186.4a1.79,1.79,0,0,0,0,3.58A1.79,1.79,0,0,0,20.15,186.4Z"/><path class="cls-4" d="M92.68,196.9a1.79,1.79,0,0,0,0,3.58A1.79,1.79,0,0,0,92.68,196.9Z"/><path class="cls-4" d="M134.68,180.68a1.79,1.79,0,0,0,0,3.58A1.79,1.79,0,0,0,134.68,180.68Z"/><path class="cls-4" d="M132.77,141.07a1.79,1.79,0,0,0,0,3.58A1.79,1.79,0,0,0,132.77,141.07Z"/><path class="cls-4" d="M190.51,173.52a1.79,1.79,0,0,0,0,3.58A1.79,1.79,0,0,0,190.51,173.52Z"/><path class="cls-4" d="M270.68,180.2a1.79,1.79,0,0,0,0,3.58A1.79,1.79,0,0,0,270.68,180.2Z"/><path class="cls-4" d="M241.09,157.29a1.79,1.79,0,0,0,0,3.58A1.79,1.79,0,0,0,241.09,157.29Z"/><path class="cls-4" d="M279.27,95.26a1.79,1.79,0,0,0,0,3.58A1.79,1.79,0,0,0,279.27,95.26Z"/><path class="cls-4" d="M288.81,45.63a1.79,1.79,0,0,0,0,3.58A1.79,1.79,0,0,0,288.81,45.63Z"/><path class="cls-4" d="M69.3,24.87c-3.23,0-3.23,5,0,5S72.53,24.87,69.3,24.87Z"/><path class="cls-4" d="M259.23,27.25c-3.23,0-3.23,5,0,5S262.46,27.25,259.23,27.25Z"/><path class="cls-4" d="M226.78,4.83c-3.23,0-3.23,5,0,5S230,4.83,226.78,4.83Z"/><path class="cls-4" d="M193.37,89.29c-3.23,0-3.23,5,0,5S196.6,89.29,193.37,89.29Z"/><path class="cls-4" d="M212,44.43c-3.23,0-3.23,5,0,5S215.22,44.43,212,44.43Z"/><path class="cls-4" d="M176.19,59.7c-3.23,0-3.23,5,0,5S179.43,59.7,176.19,59.7Z"/><path class="cls-4" d="M159,30.6c-3.23,0-3.23,5,0,5S162.25,30.6,159,30.6Z"/><path class="cls-4" d="M208.64,201.91c-3.23,0-3.23,5,0,5S211.88,201.91,208.64,201.91Z"/><path class="cls-4" d="M223.91,141.78c-3.23,0-3.23,5,0,5S227.15,141.78,223.91,141.78Z"/><path class="cls-4" d="M165.22,82.61c-3.23,0-3.23,5,0,5S168.45,82.61,165.22,82.61Z"/><path class="cls-4" d="M101.75,48.73c-3.23,0-3.23,5,0,5S105,48.73,101.75,48.73Z"/><path class="cls-4" d="M136.11-.42c-3.23,0-3.23,5,0,5S139.34-.42,136.11-.42Z"/><path class="cls-4" d="M55,91.68c-3.23,0-3.23,5,0,5S58.21,91.68,55,91.68Z"/><path class="cls-4" d="M8.22,60.18c-3.23,0-3.23,5,0,5S11.45,60.18,8.22,60.18Z"/><path class="cls-4" d="M4.88,133.67c-3.24,0-3.24,5,0,5S8.11,133.67,4.88,133.67Z"/><path class="cls-4" d="M1.06,205.25c-3.23,0-3.23,5,0,5S4.29,205.25,1.06,205.25Z"/><path class="cls-4" d="M54.51,185.21c-3.24,0-3.24,5,0,5S57.74,185.21,54.51,185.21Z"/><path class="cls-4" d="M88.86,146.08c-3.23,0-3.23,5,0,5S92.1,146.08,88.86,146.08Z"/><path class="cls-4" d="M102.23,110.77c-3.24,0-3.24,5,0,5S105.46,110.77,102.23,110.77Z"/><path class="cls-4" d="M154.24,192.85c-3.23,0-3.23,5,0,5S157.47,192.85,154.24,192.85Z"/><path class="cls-4" d="M240.14,206.21c-3.23,0-3.23,5,0,5S243.37,206.21,240.14,206.21Z"/><path class="cls-4" d="M281.18,197.14c-3.23,0-3.23,5,0,5S284.41,197.14,281.18,197.14Z"/><path class="cls-4" d="M284.52,150.37c-3.23,0-3.23,5,0,5S287.75,150.37,284.52,150.37Z"/><path class="cls-4" d="M136.58,198.57c-3.23,0-3.23,5,0,5S139.82,198.57,136.58,198.57Z"/><path class="cls-4" d="M147.08,134.15c-3.23,0-3.23,5,0,5S150.32,134.15,147.08,134.15Z"/><path class="cls-4" d="M477.21,10.19c-4.62,0-4.62,7.16,0,7.16S481.82,10.19,477.21,10.19Z"/><path class="cls-4" d="M336.91,51.71c-4.62,0-4.62,7.16,0,7.16S341.52,51.71,336.91,51.71Z"/><path class="cls-4" d="M561.67,124.72c-4.61,0-4.61,7.16,0,7.16S566.29,124.72,561.67,124.72Z"/><path class="cls-4" d="M534.47,45.27c-4.61,0-4.61,7.16,0,7.16S539.09,45.27,534.47,45.27Z"/><path class="cls-4" d="M334,157.65c-4.61,0-4.61,7.16,0,7.16S338.66,157.65,334,157.65Z"/><path class="cls-4" d="M482.93,134c-4.61,0-4.61,7.16,0,7.16S487.55,134,482.93,134Z"/><path class="cls-4" d="M429.25,110.41c-4.62,0-4.62,7.16,0,7.16S433.86,110.41,429.25,110.41Z"/><path class="cls-4" d="M558.09,5.54a1.79,1.79,0,0,0,0,3.58A1.79,1.79,0,0,0,558.09,5.54Z"/><path class="cls-4" d="M332.61,4.83a1.79,1.79,0,0,0,0,3.58A1.79,1.79,0,0,0,332.61,4.83Z"/><path class="cls-4" d="M398.47,18a1.79,1.79,0,0,0,0,3.58A1.79,1.79,0,0,0,398.47,18Z"/><path class="cls-4" d="M348.36,54.69a1.79,1.79,0,0,0,0,3.58A1.79,1.79,0,0,0,348.36,54.69Z"/><path class="cls-4" d="M437.6,70a1.79,1.79,0,0,0,0,3.58A1.79,1.79,0,0,0,437.6,70Z"/><path class="cls-4" d="M479.59,42.29a1.79,1.79,0,0,0,0,3.58A1.79,1.79,0,0,0,479.59,42.29Z"/><path class="cls-4" d="M423.76,38.47a1.79,1.79,0,0,0,0,3.58A1.79,1.79,0,0,0,423.76,38.47Z"/><path class="cls-4" d="M380.81,101.94a1.79,1.79,0,0,0,0,3.58A1.79,1.79,0,0,0,380.81,101.94Z"/><path class="cls-4" d="M475.3,102.42a1.79,1.79,0,0,0,0,3.57A1.79,1.79,0,0,0,475.3,102.42Z"/><path class="cls-4" d="M524.93,100.51a1.79,1.79,0,0,0,0,3.58A1.79,1.79,0,0,0,524.93,100.51Z"/><path class="cls-4" d="M548.31,70a1.79,1.79,0,0,0,0,3.58A1.79,1.79,0,0,0,548.31,70Z"/><path class="cls-4" d="M576.94,121a1.79,1.79,0,0,0,0,3.57A1.79,1.79,0,0,0,576.94,121Z"/><path class="cls-4" d="M528.74,178.29a1.79,1.79,0,0,0,0,3.58A1.79,1.79,0,0,0,528.74,178.29Z"/><path class="cls-4" d="M442.85,174a1.79,1.79,0,0,0,0,3.58A1.79,1.79,0,0,0,442.85,174Z"/><path class="cls-4" d="M395.13,163a1.79,1.79,0,0,0,0,3.58A1.79,1.79,0,0,0,395.13,163Z"/><path class="cls-4" d="M405.62,146.32a1.79,1.79,0,0,0,0,3.58A1.79,1.79,0,0,0,405.62,146.32Z"/><path class="cls-4" d="M352.18,134.39a1.79,1.79,0,0,0,0,3.58A1.79,1.79,0,0,0,352.18,134.39Z"/><path class="cls-4" d="M317.82,104.32a1.79,1.79,0,0,0,0,3.58A1.79,1.79,0,0,0,317.82,104.32Z"/><path class="cls-4" d="M364.59,67.1a1.79,1.79,0,0,0,0,3.58A1.79,1.79,0,0,0,364.59,67.1Z"/><path class="cls-4" d="M302.55,6a1.79,1.79,0,0,0,0,3.58A1.79,1.79,0,0,0,302.55,6Z"/><path class="cls-4" d="M400.85,77.6a1.79,1.79,0,0,0,0,3.58A1.79,1.79,0,0,0,400.85,77.6Z"/><path class="cls-4" d="M319.25,157.29a1.79,1.79,0,0,0,0,3.58A1.79,1.79,0,0,0,319.25,157.29Z"/><path class="cls-4" d="M316.86,186.4a1.79,1.79,0,0,0,0,3.58A1.79,1.79,0,0,0,316.86,186.4Z"/><path class="cls-4" d="M389.4,196.9a1.79,1.79,0,0,0,0,3.58A1.79,1.79,0,0,0,389.4,196.9Z"/><path class="cls-4" d="M431.39,180.68a1.79,1.79,0,0,0,0,3.58A1.79,1.79,0,0,0,431.39,180.68Z"/><path class="cls-4" d="M429.49,141.07a1.79,1.79,0,0,0,0,3.58A1.79,1.79,0,0,0,429.49,141.07Z"/><path class="cls-4" d="M487.23,173.52a1.79,1.79,0,0,0,0,3.58A1.79,1.79,0,0,0,487.23,173.52Z"/><path class="cls-4" d="M567.4,180.2a1.79,1.79,0,0,0,0,3.58A1.79,1.79,0,0,0,567.4,180.2Z"/><path class="cls-4" d="M537.81,157.29a1.79,1.79,0,0,0,0,3.58A1.79,1.79,0,0,0,537.81,157.29Z"/><path class="cls-4" d="M576,95.26a1.79,1.79,0,0,0,0,3.58A1.79,1.79,0,0,0,576,95.26Z"/><path class="cls-4" d="M585.53,45.63a1.79,1.79,0,0,0,0,3.58A1.79,1.79,0,0,0,585.53,45.63Z"/><path class="cls-4" d="M366,24.87c-3.23,0-3.23,5,0,5S369.25,24.87,366,24.87Z"/><path class="cls-4" d="M556,27.25c-3.24,0-3.24,5,0,5S559.18,27.25,556,27.25Z"/><path class="cls-4" d="M523.49,4.83c-3.23,0-3.23,5,0,5S526.73,4.83,523.49,4.83Z"/><path class="cls-4" d="M490.09,89.29c-3.23,0-3.23,5,0,5S493.32,89.29,490.09,89.29Z"/><path class="cls-4" d="M508.7,44.43c-3.23,0-3.23,5,0,5S511.93,44.43,508.7,44.43Z"/><path class="cls-4" d="M472.91,59.7c-3.23,0-3.23,5,0,5S476.14,59.7,472.91,59.7Z"/><path class="cls-4" d="M455.73,30.6c-3.23,0-3.23,5,0,5S459,30.6,455.73,30.6Z"/><path class="cls-4" d="M505.36,201.91c-3.23,0-3.23,5,0,5S508.59,201.91,505.36,201.91Z"/><path class="cls-4" d="M520.63,141.78c-3.23,0-3.23,5,0,5S523.86,141.78,520.63,141.78Z"/><path class="cls-4" d="M461.94,82.61c-3.24,0-3.24,5,0,5S465.17,82.61,461.94,82.61Z"/><path class="cls-4" d="M398.47,48.73c-3.23,0-3.23,5,0,5S401.7,48.73,398.47,48.73Z"/><path class="cls-4" d="M432.83-.42c-3.24,0-3.24,5,0,5S436.06-.42,432.83-.42Z"/><path class="cls-4" d="M351.7,91.68c-3.23,0-3.23,5,0,5S354.93,91.68,351.7,91.68Z"/><path class="cls-4" d="M304.93,60.18c-3.23,0-3.23,5,0,5S308.17,60.18,304.93,60.18Z"/><path class="cls-4" d="M301.59,133.67c-3.23,0-3.23,5,0,5S304.83,133.67,301.59,133.67Z"/><path class="cls-4" d="M297.78,205.25c-3.23,0-3.23,5,0,5S301,205.25,297.78,205.25Z"/><path class="cls-4" d="M351.22,185.21c-3.23,0-3.23,5,0,5S354.45,185.21,351.22,185.21Z"/><path class="cls-4" d="M385.58,146.08c-3.23,0-3.23,5,0,5S388.81,146.08,385.58,146.08Z"/><path class="cls-4" d="M398.94,110.77c-3.23,0-3.23,5,0,5S402.18,110.77,398.94,110.77Z"/><path class="cls-4" d="M451,192.85c-3.23,0-3.23,5,0,5S454.19,192.85,451,192.85Z"/><path class="cls-4" d="M536.86,206.21c-3.23,0-3.23,5,0,5S540.09,206.21,536.86,206.21Z"/><path class="cls-4" d="M577.9,197.14c-3.24,0-3.24,5,0,5S581.13,197.14,577.9,197.14Z"/><path class="cls-4" d="M581.24,150.37c-3.23,0-3.23,5,0,5S584.47,150.37,581.24,150.37Z"/><path class="cls-4" d="M433.3,198.57c-3.23,0-3.23,5,0,5S436.53,198.57,433.3,198.57Z"/><path class="cls-4" d="M443.8,134.15c-3.23,0-3.23,5,0,5S447,134.15,443.8,134.15Z"/><path class="cls-4" d="M545.09,207.28c4.61,0,4.61-7.16,0-7.16S540.47,207.28,545.09,207.28Z"/><path class="cls-4" d="M473.74,180.44c4.62,0,4.62-7.16,0-7.16S469.13,180.44,473.74,180.44Z"/><path class="cls-4" d="M412.66,125.68c4.62,0,4.62-7.16,0-7.16S408,125.68,412.66,125.68Z"/><path class="cls-4" d="M341.8,186.52c4.61,0,4.61-7.16,0-7.16S337.18,186.52,341.8,186.52Z"/><path class="cls-4" d="M553,84.16c4.62,0,4.62-7.16,0-7.16S548.34,84.16,553,84.16Z"/><path class="cls-4" d="M328.2,11.15c4.61,0,4.61-7.16,0-7.16S323.58,11.15,328.2,11.15Z"/><path class="cls-4" d="M355.4,90.6c4.61,0,4.61-7.15,0-7.15S350.78,90.6,355.4,90.6Z"/><path class="cls-4" d="M406.93,1.84c4.62,0,4.62-7.16,0-7.16S402.32,1.84,406.93,1.84Z"/><path class="cls-4" d="M460.62,25.46c4.62,0,4.62-7.16,0-7.16S456,25.46,460.62,25.46Z"/><path class="cls-4" d="M402.64,176.86a1.79,1.79,0,0,0,0-3.58A1.79,1.79,0,0,0,402.64,176.86Z"/><path class="cls-4" d="M331.77,130.33a1.79,1.79,0,0,0,0-3.58A1.79,1.79,0,0,0,331.77,130.33Z"/><path class="cls-4" d="M557.25,131.05a1.79,1.79,0,0,0,0-3.58A1.79,1.79,0,0,0,557.25,131.05Z"/><path class="cls-4" d="M380.21,140.83a1.79,1.79,0,0,0,0-3.58A1.79,1.79,0,0,0,380.21,140.83Z"/><path class="cls-4" d="M473.74,149.42a1.79,1.79,0,0,0,0-3.58A1.79,1.79,0,0,0,473.74,149.42Z"/><path class="cls-4" d="M404.07,198.09a1.79,1.79,0,0,0,0-3.58A1.79,1.79,0,0,0,404.07,198.09Z"/><path class="cls-4" d="M548.19,174.23a1.79,1.79,0,0,0,0-3.58A1.79,1.79,0,0,0,548.19,174.23Z"/><path class="cls-4" d="M491.4,117.92a1.79,1.79,0,0,0,0-3.58A1.79,1.79,0,0,0,491.4,117.92Z"/><path class="cls-4" d="M541.51,81.18a1.79,1.79,0,0,0,0-3.58A1.79,1.79,0,0,0,541.51,81.18Z"/><path class="cls-4" d="M452.27,65.91a1.79,1.79,0,0,0,0-3.58A1.79,1.79,0,0,0,452.27,65.91Z"/><path class="cls-4" d="M410.27,93.59a1.79,1.79,0,0,0,0-3.58A1.79,1.79,0,0,0,410.27,93.59Z"/><path class="cls-4" d="M466.11,97.4a1.79,1.79,0,0,0,0-3.58A1.79,1.79,0,0,0,466.11,97.4Z"/><path class="cls-4" d="M509.06,33.93a1.79,1.79,0,0,0,0-3.57A1.79,1.79,0,0,0,509.06,33.93Z"/><path class="cls-4" d="M414.57,33.46a1.79,1.79,0,0,0,0-3.58A1.79,1.79,0,0,0,414.57,33.46Z"/><path class="cls-4" d="M364.94,35.37a1.79,1.79,0,0,0,0-3.58A1.79,1.79,0,0,0,364.94,35.37Z"/><path class="cls-4" d="M341.56,65.91a1.79,1.79,0,0,0,0-3.58A1.79,1.79,0,0,0,341.56,65.91Z"/><path class="cls-4" d="M312.92,14.85a1.79,1.79,0,0,0,0-3.58A1.79,1.79,0,0,0,312.92,14.85Z"/><path class="cls-4" d="M537.69,1.48a1.79,1.79,0,0,0,0-3.57A1.79,1.79,0,0,0,537.69,1.48Z"/><path class="cls-4" d="M572.05,31.55a1.79,1.79,0,0,0,0-3.58A1.79,1.79,0,0,0,572.05,31.55Z"/><path class="cls-4" d="M525.28,68.77a1.79,1.79,0,0,0,0-3.58A1.79,1.79,0,0,0,525.28,68.77Z"/><path class="cls-4" d="M587.32,129.85a1.79,1.79,0,0,0,0-3.58A1.79,1.79,0,0,0,587.32,129.85Z"/><path class="cls-4" d="M579.68,188.55a1.79,1.79,0,0,0,0-3.58A1.79,1.79,0,0,0,579.68,188.55Z"/><path class="cls-4" d="M511,186.16a1.79,1.79,0,0,0,0-3.58A1.79,1.79,0,0,0,511,186.16Z"/><path class="cls-4" d="M490.45,207.64a1.79,1.79,0,0,0,0-3.58A1.79,1.79,0,0,0,490.45,207.64Z"/><path class="cls-4" d="M434.61,209.55a1.79,1.79,0,0,0,0-3.58A1.79,1.79,0,0,0,434.61,209.55Z"/><path class="cls-4" d="M426,155.15a1.79,1.79,0,0,0,0-3.58A1.79,1.79,0,0,0,426,155.15Z"/><path class="cls-4" d="M518.6,150.37a1.79,1.79,0,0,0,0-3.58A1.79,1.79,0,0,0,518.6,150.37Z"/><path class="cls-4" d="M489,58.27a1.79,1.79,0,0,0,0-3.58A1.79,1.79,0,0,0,489,58.27Z"/><path class="cls-4" d="M313.88,40.62a1.79,1.79,0,0,0,0-3.58A1.79,1.79,0,0,0,313.88,40.62Z"/><path class="cls-4" d="M304.34,90.24a1.79,1.79,0,0,0,0-3.57A1.79,1.79,0,0,0,304.34,90.24Z"/><path class="cls-4" d="M314.36,160.39a1.79,1.79,0,0,0,0-3.58A1.79,1.79,0,0,0,314.36,160.39Z"/><path class="cls-4" d="M320.08,212.41a1.79,1.79,0,0,0,0-3.58A1.79,1.79,0,0,0,320.08,212.41Z"/><path class="cls-4" d="M366.37,208.12a1.79,1.79,0,0,0,0-3.58A1.79,1.79,0,0,0,366.37,208.12Z"/><path class="cls-4" d="M523.85,111c3.23,0,3.23-5,0-5S520.62,111,523.85,111Z"/><path class="cls-4" d="M561.55,161.59c3.23,0,3.23-5,0-5S558.32,161.59,561.55,161.59Z"/><path class="cls-4" d="M570.62,205c3.23,0,3.23-5,0-5S567.38,205,570.62,205Z"/><path class="cls-4" d="M519.08,203.58c3.23,0,3.23-5,0-5S515.85,203.58,519.08,203.58Z"/><path class="cls-4" d="M500,162.07c3.23,0,3.23-5,0-5S496.76,162.07,500,162.07Z"/><path class="cls-4" d="M443.2,179.72c3.23,0,3.23-5,0-5S440,179.72,443.2,179.72Z"/><path class="cls-4" d="M467.06,218.85c3.23,0,3.23-5,0-5S463.83,218.85,467.06,218.85Z"/><path class="cls-4" d="M385.94,206.92c3.23,0,3.23-5,0-5S382.71,206.92,385.94,206.92Z"/><path class="cls-4" d="M370.67,170.65c3.23,0,3.23-5,0-5S367.43,170.65,370.67,170.65Z"/><path class="cls-4" d="M321,197.86c3.23,0,3.23-5,0-5S317.81,197.86,321,197.86Z"/><path class="cls-4" d="M357.3,216c3.24,0,3.24-5,0-5S354.07,216,357.3,216Z"/><path class="cls-4" d="M333.92,108.62c3.23,0,3.23-5,0-5S330.69,108.62,333.92,108.62Z"/><path class="cls-4" d="M366.37,131.05c3.23,0,3.23-5,0-5S363.14,131.05,366.37,131.05Z"/><path class="cls-4" d="M342,154.91c3.23,0,3.23-5,0-5S338.8,154.91,342,154.91Z"/><path class="cls-4" d="M399.78,46.58c3.23,0,3.23-5,0-5S396.54,46.58,399.78,46.58Z"/><path class="cls-4" d="M381.17,91.44c3.23,0,3.23-5,0-5S377.93,91.44,381.17,91.44Z"/><path class="cls-4" d="M417,76.17c3.23,0,3.23-5,0-5S413.72,76.17,417,76.17Z"/><path class="cls-4" d="M434.14,105.28c3.23,0,3.23-5,0-5S430.9,105.28,434.14,105.28Z"/><path class="cls-4" d="M427.93,53.26c3.23,0,3.23-5,0-5S424.7,53.26,427.93,53.26Z"/><path class="cls-4" d="M491.4,87.14c3.23,0,3.23-5,0-5S488.17,87.14,491.4,87.14Z"/><path class="cls-4" d="M457,136.3c3.23,0,3.23-5,0-5S453.81,136.3,457,136.3Z"/><path class="cls-4" d="M538.17,44.19c3.23,0,3.23-5,0-5S534.93,44.19,538.17,44.19Z"/><path class="cls-4" d="M584.93,75.69c3.23,0,3.23-5,0-5S581.7,75.69,584.93,75.69Z"/><path class="cls-4" d="M588.27,2.2c3.23,0,3.23-5,0-5S585,2.2,588.27,2.2Z"/><path class="cls-4" d="M490.92,25.11c3.23,0,3.23-5,0-5S487.69,25.11,490.92,25.11Z"/><path class="cls-4" d="M446.07,1.72c3.23,0,3.23-5,0-5S442.83,1.72,446.07,1.72Z"/><path class="cls-4" d="M248.37,207.28c4.61,0,4.61-7.16,0-7.16S243.75,207.28,248.37,207.28Z"/><path class="cls-4" d="M177,180.44c4.61,0,4.61-7.16,0-7.16S172.41,180.44,177,180.44Z"/><path class="cls-4" d="M115.94,125.68c4.62,0,4.62-7.16,0-7.16S111.33,125.68,115.94,125.68Z"/><path class="cls-4" d="M45.08,186.52c4.61,0,4.61-7.16,0-7.16S40.46,186.52,45.08,186.52Z"/><path class="cls-4" d="M256.24,84.16c4.62,0,4.62-7.16,0-7.16S251.63,84.16,256.24,84.16Z"/><path class="cls-4" d="M31.48,11.15c4.61,0,4.61-7.16,0-7.16S26.86,11.15,31.48,11.15Z"/><path class="cls-4" d="M58.68,90.6c4.61,0,4.61-7.15,0-7.15S54.06,90.6,58.68,90.6Z"/><path class="cls-4" d="M110.22,1.84c4.61,0,4.61-7.16,0-7.16S105.6,1.84,110.22,1.84Z"/><path class="cls-4" d="M163.9,25.46c4.62,0,4.62-7.16,0-7.16S159.29,25.46,163.9,25.46Z"/><path class="cls-4" d="M105.92,176.86a1.79,1.79,0,0,0,0-3.58A1.79,1.79,0,0,0,105.92,176.86Z"/><path class="cls-4" d="M35.06,130.33a1.79,1.79,0,0,0,0-3.58A1.79,1.79,0,0,0,35.06,130.33Z"/><path class="cls-4" d="M260.54,131.05a1.79,1.79,0,0,0,0-3.58A1.79,1.79,0,0,0,260.54,131.05Z"/><path class="cls-4" d="M83.49,140.83a1.79,1.79,0,0,0,0-3.58A1.79,1.79,0,0,0,83.49,140.83Z"/><path class="cls-4" d="M177,149.42a1.79,1.79,0,0,0,0-3.58A1.79,1.79,0,0,0,177,149.42Z"/><path class="cls-4" d="M107.35,198.09a1.79,1.79,0,0,0,0-3.58A1.79,1.79,0,0,0,107.35,198.09Z"/><path class="cls-4" d="M251.47,174.23a1.79,1.79,0,0,0,0-3.58A1.79,1.79,0,0,0,251.47,174.23Z"/><path class="cls-4" d="M194.68,117.92a1.79,1.79,0,0,0,0-3.58A1.79,1.79,0,0,0,194.68,117.92Z"/><path class="cls-4" d="M244.79,81.18a1.79,1.79,0,0,0,0-3.58A1.79,1.79,0,0,0,244.79,81.18Z"/><path class="cls-4" d="M155.55,65.91a1.79,1.79,0,0,0,0-3.58A1.79,1.79,0,0,0,155.55,65.91Z"/><path class="cls-4" d="M113.56,93.59a1.79,1.79,0,0,0,0-3.58A1.79,1.79,0,0,0,113.56,93.59Z"/><path class="cls-4" d="M169.39,97.4a1.79,1.79,0,0,0,0-3.58A1.79,1.79,0,0,0,169.39,97.4Z"/><path class="cls-4" d="M212.34,33.93a1.79,1.79,0,0,0,0-3.57A1.79,1.79,0,0,0,212.34,33.93Z"/><path class="cls-4" d="M117.85,33.46a1.79,1.79,0,0,0,0-3.58A1.79,1.79,0,0,0,117.85,33.46Z"/><path class="cls-4" d="M68.22,35.37a1.79,1.79,0,0,0,0-3.58A1.79,1.79,0,0,0,68.22,35.37Z"/><path class="cls-4" d="M44.84,65.91a1.79,1.79,0,0,0,0-3.58A1.79,1.79,0,0,0,44.84,65.91Z"/><path class="cls-4" d="M16.21,14.85a1.79,1.79,0,0,0,0-3.58A1.79,1.79,0,0,0,16.21,14.85Z"/><path class="cls-4" d="M241,1.48a1.79,1.79,0,0,0,0-3.57A1.79,1.79,0,0,0,241,1.48Z"/><path class="cls-4" d="M275.33,31.55a1.79,1.79,0,0,0,0-3.58A1.79,1.79,0,0,0,275.33,31.55Z"/><path class="cls-4" d="M228.56,68.77a1.79,1.79,0,0,0,0-3.58A1.79,1.79,0,0,0,228.56,68.77Z"/><path class="cls-4" d="M290.6,129.85a1.79,1.79,0,0,0,0-3.58A1.79,1.79,0,0,0,290.6,129.85Z"/><path class="cls-4" d="M283,188.55a1.79,1.79,0,0,0,0-3.58A1.79,1.79,0,0,0,283,188.55Z"/><path class="cls-4" d="M214.25,186.16a1.79,1.79,0,0,0,0-3.58A1.79,1.79,0,0,0,214.25,186.16Z"/><path class="cls-4" d="M193.73,207.64a1.79,1.79,0,0,0,0-3.58A1.79,1.79,0,0,0,193.73,207.64Z"/><path class="cls-4" d="M137.9,209.55a1.79,1.79,0,0,0,0-3.58A1.79,1.79,0,0,0,137.9,209.55Z"/><path class="cls-4" d="M129.3,155.15a1.79,1.79,0,0,0,0-3.58A1.79,1.79,0,0,0,129.3,155.15Z"/><path class="cls-4" d="M221.88,150.37a1.79,1.79,0,0,0,0-3.58A1.79,1.79,0,0,0,221.88,150.37Z"/><path class="cls-4" d="M192.3,58.27a1.79,1.79,0,0,0,0-3.58A1.79,1.79,0,0,0,192.3,58.27Z"/><path class="cls-4" d="M17.16,40.62a1.79,1.79,0,0,0,0-3.58A1.79,1.79,0,0,0,17.16,40.62Z"/><path class="cls-4" d="M7.62,90.24a1.79,1.79,0,0,0,0-3.57A1.79,1.79,0,0,0,7.62,90.24Z"/><path class="cls-4" d="M17.64,160.39a1.79,1.79,0,0,0,0-3.58A1.79,1.79,0,0,0,17.64,160.39Z"/><path class="cls-4" d="M23.37,212.41a1.79,1.79,0,0,0,0-3.58A1.79,1.79,0,0,0,23.37,212.41Z"/><path class="cls-4" d="M69.65,208.11a1.79,1.79,0,0,0,0-3.57A1.79,1.79,0,0,0,69.65,208.11Z"/><path class="cls-4" d="M227.13,111c3.23,0,3.23-5,0-5S223.9,111,227.13,111Z"/><path class="cls-4" d="M264.83,161.59c3.23,0,3.23-5,0-5S261.6,161.59,264.83,161.59Z"/><path class="cls-4" d="M273.9,205c3.23,0,3.23-5,0-5S270.67,205,273.9,205Z"/><path class="cls-4" d="M222.36,203.58c3.23,0,3.23-5,0-5S219.13,203.58,222.36,203.58Z"/><path class="cls-4" d="M203.27,162.07c3.23,0,3.23-5,0-5S200,162.07,203.27,162.07Z"/><path class="cls-4" d="M146.48,179.72c3.24,0,3.24-5,0-5S143.25,179.72,146.48,179.72Z"/><path class="cls-4" d="M170.34,218.85c3.24,0,3.24-5,0-5S167.11,218.85,170.34,218.85Z"/><path class="cls-4" d="M89.22,206.92c3.23,0,3.23-5,0-5S86,206.92,89.22,206.92Z"/><path class="cls-4" d="M74,170.65c3.23,0,3.23-5,0-5S70.72,170.65,74,170.65Z"/><path class="cls-4" d="M24.32,197.86c3.23,0,3.23-5,0-5S21.09,197.86,24.32,197.86Z"/><path class="cls-4" d="M60.59,216c3.23,0,3.23-5,0-5S57.36,216,60.59,216Z"/><path class="cls-4" d="M37.2,108.62c3.23,0,3.23-5,0-5S34,108.62,37.2,108.62Z"/><path class="cls-4" d="M69.65,131.05c3.24,0,3.24-5,0-5S66.42,131.05,69.65,131.05Z"/><path class="cls-4" d="M45.32,154.91c3.23,0,3.23-5,0-5S42.08,154.91,45.32,154.91Z"/><path class="cls-4" d="M103.06,46.58c3.23,0,3.23-5,0-5S99.83,46.58,103.06,46.58Z"/><path class="cls-4" d="M84.45,91.44c3.23,0,3.23-5,0-5S81.22,91.44,84.45,91.44Z"/><path class="cls-4" d="M120.24,76.17c3.23,0,3.23-5,0-5S117,76.17,120.24,76.17Z"/><path class="cls-4" d="M137.42,105.28c3.23,0,3.23-5,0-5S134.19,105.28,137.42,105.28Z"/><path class="cls-4" d="M131.21,53.26c3.23,0,3.23-5,0-5S128,53.26,131.21,53.26Z"/><path class="cls-4" d="M194.68,87.14c3.23,0,3.23-5,0-5S191.45,87.14,194.68,87.14Z"/><path class="cls-4" d="M160.32,136.3c3.23,0,3.23-5,0-5S157.09,136.3,160.32,136.3Z"/><path class="cls-4" d="M241.45,44.19c3.23,0,3.23-5,0-5S238.22,44.19,241.45,44.19Z"/><path class="cls-4" d="M288.21,75.69c3.24,0,3.24-5,0-5S285,75.69,288.21,75.69Z"/><path class="cls-4" d="M291.56,2.2c3.23,0,3.23-5,0-5S288.32,2.2,291.56,2.2Z"/><path class="cls-4" d="M194.2,25.11c3.24,0,3.24-5,0-5S191,25.11,194.2,25.11Z"/><path class="cls-4" d="M149.35,1.72c3.23,0,3.23-5,0-5S146.12,1.72,149.35,1.72Z"/><path class="cls-4" d="M48.06,230.42c-4.61,0-4.61,7.16,0,7.16S52.68,230.42,48.06,230.42Z"/><path class="cls-4" d="M119.41,257.27c-4.62,0-4.62,7.16,0,7.16S124,257.27,119.41,257.27Z"/><path class="cls-4" d="M180.49,312c-4.62,0-4.62,7.15,0,7.15S185.1,312,180.49,312Z"/><path class="cls-4" d="M251.35,251.18c-4.61,0-4.61,7.16,0,7.16S256,251.18,251.35,251.18Z"/><path class="cls-4" d="M40.19,353.54c-4.62,0-4.62,7.16,0,7.16S44.81,353.54,40.19,353.54Z"/><path class="cls-4" d="M237.75,347.1c-4.61,0-4.61,7.16,0,7.16S242.37,347.1,237.75,347.1Z"/><path class="cls-4" d="M132.53,412.24c-4.62,0-4.62,7.16,0,7.16S137.15,412.24,132.53,412.24Z"/><path class="cls-4" d="M190.51,260.85a1.79,1.79,0,0,0,0,3.58A1.79,1.79,0,0,0,190.51,260.85Z"/><path class="cls-4" d="M261.37,307.37a1.79,1.79,0,0,0,0,3.58A1.79,1.79,0,0,0,261.37,307.37Z"/><path class="cls-4" d="M35.89,306.66a1.79,1.79,0,0,0,0,3.58A1.79,1.79,0,0,0,35.89,306.66Z"/><path class="cls-4" d="M212.94,296.88a1.79,1.79,0,0,0,0,3.57A1.79,1.79,0,0,0,212.94,296.88Z"/><path class="cls-4" d="M119.41,288.29a1.79,1.79,0,0,0,0,3.57A1.79,1.79,0,0,0,119.41,288.29Z"/><path class="cls-4" d="M189.08,239.61a1.79,1.79,0,0,0,0,3.58A1.79,1.79,0,0,0,189.08,239.61Z"/><path class="cls-4" d="M45,263.47a1.79,1.79,0,0,0,0,3.58A1.79,1.79,0,0,0,45,263.47Z"/><path class="cls-4" d="M101.75,319.78a1.79,1.79,0,0,0,0,3.58A1.79,1.79,0,0,0,101.75,319.78Z"/><path class="cls-4" d="M51.64,356.53a1.79,1.79,0,0,0,0,3.58A1.79,1.79,0,0,0,51.64,356.53Z"/><path class="cls-4" d="M140.88,371.8a1.79,1.79,0,0,0,0,3.57A1.79,1.79,0,0,0,140.88,371.8Z"/><path class="cls-4" d="M182.88,344.12a1.79,1.79,0,0,0,0,3.58A1.79,1.79,0,0,0,182.88,344.12Z"/><path class="cls-4" d="M127,340.3a1.79,1.79,0,0,0,0,3.58A1.79,1.79,0,0,0,127,340.3Z"/><path class="cls-4" d="M84.09,403.77a1.79,1.79,0,0,0,0,3.58A1.79,1.79,0,0,0,84.09,403.77Z"/><path class="cls-4" d="M178.58,404.25a1.79,1.79,0,0,0,0,3.58A1.79,1.79,0,0,0,178.58,404.25Z"/><path class="cls-4" d="M228.21,402.34a1.79,1.79,0,0,0,0,3.58A1.79,1.79,0,0,0,228.21,402.34Z"/><path class="cls-4" d="M251.59,371.8a1.79,1.79,0,0,0,0,3.57A1.79,1.79,0,0,0,251.59,371.8Z"/><path class="cls-4" d="M21.1,406.15a1.79,1.79,0,0,0,0,3.58A1.79,1.79,0,0,0,21.1,406.15Z"/><path class="cls-4" d="M67.87,368.93a1.79,1.79,0,0,0,0,3.58A1.79,1.79,0,0,0,67.87,368.93Z"/><path class="cls-4" d="M5.83,307.85a1.79,1.79,0,0,0,0,3.58A1.79,1.79,0,0,0,5.83,307.85Z"/><path class="cls-4" d="M13.47,249.15a1.79,1.79,0,0,0,0,3.58A1.79,1.79,0,0,0,13.47,249.15Z"/><path class="cls-4" d="M82.18,251.54a1.79,1.79,0,0,0,0,3.58A1.79,1.79,0,0,0,82.18,251.54Z"/><path class="cls-4" d="M102.7,230.07a1.79,1.79,0,0,0,0,3.57A1.79,1.79,0,0,0,102.7,230.07Z"/><path class="cls-4" d="M158.54,228.16a1.79,1.79,0,0,0,0,3.58A1.79,1.79,0,0,0,158.54,228.16Z"/><path class="cls-4" d="M167.13,282.56a1.79,1.79,0,0,0,0,3.58A1.79,1.79,0,0,0,167.13,282.56Z"/><path class="cls-4" d="M74.55,287.33a1.79,1.79,0,0,0,0,3.58A1.79,1.79,0,0,0,74.55,287.33Z"/><path class="cls-4" d="M104.14,379.43a1.79,1.79,0,0,0,0,3.58A1.79,1.79,0,0,0,104.14,379.43Z"/><path class="cls-4" d="M279.27,397.09a1.79,1.79,0,0,0,0,3.58A1.79,1.79,0,0,0,279.27,397.09Z"/><path class="cls-4" d="M288.81,347.46a1.79,1.79,0,0,0,0,3.58A1.79,1.79,0,0,0,288.81,347.46Z"/><path class="cls-4" d="M278.79,277.31a1.79,1.79,0,0,0,0,3.58A1.79,1.79,0,0,0,278.79,277.31Z"/><path class="cls-4" d="M273.07,225.29a1.79,1.79,0,0,0,0,3.58A1.79,1.79,0,0,0,273.07,225.29Z"/><path class="cls-4" d="M226.78,229.59a1.79,1.79,0,0,0,0,3.58A1.79,1.79,0,0,0,226.78,229.59Z"/><path class="cls-4" d="M69.3,326.7c-3.23,0-3.23,5,0,5S72.53,326.7,69.3,326.7Z"/><path class="cls-4" d="M31.6,276.12c-3.23,0-3.23,5,0,5S34.83,276.12,31.6,276.12Z"/><path class="cls-4" d="M22.53,232.69c-3.23,0-3.23,5,0,5S25.77,232.69,22.53,232.69Z"/><path class="cls-4" d="M74.07,234.12c-3.23,0-3.23,5,0,5S77.3,234.12,74.07,234.12Z"/><path class="cls-4" d="M93.16,275.64c-3.23,0-3.23,5,0,5S96.39,275.64,93.16,275.64Z"/><path class="cls-4" d="M150,258c-3.23,0-3.23,5,0,5S153.18,258,150,258Z"/><path class="cls-4" d="M126.09,218.85c-3.23,0-3.23,5,0,5S129.32,218.85,126.09,218.85Z"/><path class="cls-4" d="M207.21,230.78c-3.23,0-3.23,5,0,5S210.44,230.78,207.21,230.78Z"/><path class="cls-4" d="M222.48,267.05c-3.23,0-3.23,5,0,5S225.71,267.05,222.48,267.05Z"/><path class="cls-4" d="M272.11,239.85c-3.23,0-3.23,5,0,5S275.34,239.85,272.11,239.85Z"/><path class="cls-4" d="M235.84,221.72c-3.23,0-3.23,5,0,5S239.08,221.72,235.84,221.72Z"/><path class="cls-4" d="M259.23,329.09c-3.23,0-3.23,5,0,5S262.46,329.09,259.23,329.09Z"/><path class="cls-4" d="M226.78,306.66c-3.23,0-3.23,5,0,5S230,306.66,226.78,306.66Z"/><path class="cls-4" d="M251.11,282.8c-3.23,0-3.23,5,0,5S254.35,282.8,251.11,282.8Z"/><path class="cls-4" d="M193.37,391.12c-3.23,0-3.23,5,0,5S196.6,391.12,193.37,391.12Z"/><path class="cls-4" d="M212,346.27c-3.23,0-3.23,5,0,5S215.22,346.27,212,346.27Z"/><path class="cls-4" d="M176.19,361.54c-3.23,0-3.23,5,0,5S179.43,361.54,176.19,361.54Z"/><path class="cls-4" d="M159,332.43c-3.23,0-3.23,5,0,5S162.25,332.43,159,332.43Z"/><path class="cls-4" d="M165.22,384.44c-3.23,0-3.23,5,0,5S168.45,384.44,165.22,384.44Z"/><path class="cls-4" d="M101.75,350.56c-3.23,0-3.23,5,0,5S105,350.56,101.75,350.56Z"/><path class="cls-4" d="M136.11,301.41c-3.23,0-3.23,5,0,5S139.34,301.41,136.11,301.41Z"/><path class="cls-4" d="M55,393.51c-3.23,0-3.23,5,0,5S58.21,393.51,55,393.51Z"/><path class="cls-4" d="M8.22,362c-3.23,0-3.23,5,0,5S11.45,362,8.22,362Z"/><path class="cls-4" d="M102.23,412.6c-3.24,0-3.24,5,0,5S105.46,412.6,102.23,412.6Z"/><path class="cls-4" d="M344.78,230.42c-4.62,0-4.62,7.16,0,7.16S349.4,230.42,344.78,230.42Z"/><path class="cls-4" d="M416.12,257.27c-4.61,0-4.61,7.16,0,7.16S420.74,257.27,416.12,257.27Z"/><path class="cls-4" d="M477.21,312c-4.62,0-4.62,7.15,0,7.15S481.82,312,477.21,312Z"/><path class="cls-4" d="M548.07,251.18c-4.62,0-4.62,7.16,0,7.16S552.69,251.18,548.07,251.18Z"/><path class="cls-4" d="M336.91,353.54c-4.62,0-4.62,7.16,0,7.16S341.52,353.54,336.91,353.54Z"/><path class="cls-4" d="M534.47,347.1c-4.61,0-4.61,7.16,0,7.16S539.09,347.1,534.47,347.1Z"/><path class="cls-4" d="M429.25,412.24c-4.62,0-4.62,7.16,0,7.16S433.86,412.24,429.25,412.24Z"/><path class="cls-4" d="M487.23,260.85a1.79,1.79,0,0,0,0,3.58A1.79,1.79,0,0,0,487.23,260.85Z"/><path class="cls-4" d="M558.09,307.37a1.79,1.79,0,0,0,0,3.58A1.79,1.79,0,0,0,558.09,307.37Z"/><path class="cls-4" d="M332.61,306.66a1.79,1.79,0,0,0,0,3.58A1.79,1.79,0,0,0,332.61,306.66Z"/><path class="cls-4" d="M509.66,296.88a1.79,1.79,0,0,0,0,3.57A1.79,1.79,0,0,0,509.66,296.88Z"/><path class="cls-4" d="M416.12,288.29a1.79,1.79,0,0,0,0,3.57A1.79,1.79,0,0,0,416.12,288.29Z"/><path class="cls-4" d="M485.8,239.61a1.79,1.79,0,0,0,0,3.58A1.79,1.79,0,0,0,485.8,239.61Z"/><path class="cls-4" d="M341.68,263.47a1.79,1.79,0,0,0,0,3.58A1.79,1.79,0,0,0,341.68,263.47Z"/><path class="cls-4" d="M398.47,319.78a1.79,1.79,0,0,0,0,3.58A1.79,1.79,0,0,0,398.47,319.78Z"/><path class="cls-4" d="M348.36,356.53a1.79,1.79,0,0,0,0,3.58A1.79,1.79,0,0,0,348.36,356.53Z"/><path class="cls-4" d="M437.6,371.8a1.79,1.79,0,0,0,0,3.57A1.79,1.79,0,0,0,437.6,371.8Z"/><path class="cls-4" d="M479.59,344.12a1.79,1.79,0,0,0,0,3.58A1.79,1.79,0,0,0,479.59,344.12Z"/><path class="cls-4" d="M423.76,340.3a1.79,1.79,0,0,0,0,3.58A1.79,1.79,0,0,0,423.76,340.3Z"/><path class="cls-4" d="M380.81,403.77a1.79,1.79,0,0,0,0,3.58A1.79,1.79,0,0,0,380.81,403.77Z"/><path class="cls-4" d="M475.3,404.25a1.79,1.79,0,0,0,0,3.58A1.79,1.79,0,0,0,475.3,404.25Z"/><path class="cls-4" d="M524.93,402.34a1.79,1.79,0,0,0,0,3.58A1.79,1.79,0,0,0,524.93,402.34Z"/><path class="cls-4" d="M548.31,371.8a1.79,1.79,0,0,0,0,3.57A1.79,1.79,0,0,0,548.31,371.8Z"/><path class="cls-4" d="M317.82,406.15a1.79,1.79,0,0,0,0,3.58A1.79,1.79,0,0,0,317.82,406.15Z"/><path class="cls-4" d="M364.59,368.93a1.79,1.79,0,0,0,0,3.58A1.79,1.79,0,0,0,364.59,368.93Z"/><path class="cls-4" d="M302.55,307.85a1.79,1.79,0,0,0,0,3.58A1.79,1.79,0,0,0,302.55,307.85Z"/><path class="cls-4" d="M310.18,249.15a1.79,1.79,0,0,0,0,3.58A1.79,1.79,0,0,0,310.18,249.15Z"/><path class="cls-4" d="M378.9,251.54a1.79,1.79,0,0,0,0,3.58A1.79,1.79,0,0,0,378.9,251.54Z"/><path class="cls-4" d="M399.42,230.07a1.79,1.79,0,0,0,0,3.57A1.79,1.79,0,0,0,399.42,230.07Z"/><path class="cls-4" d="M455.25,228.16a1.79,1.79,0,0,0,0,3.58A1.79,1.79,0,0,0,455.25,228.16Z"/><path class="cls-4" d="M463.84,282.56a1.79,1.79,0,0,0,0,3.58A1.79,1.79,0,0,0,463.84,282.56Z"/><path class="cls-4" d="M371.27,287.33a1.79,1.79,0,0,0,0,3.58A1.79,1.79,0,0,0,371.27,287.33Z"/><path class="cls-4" d="M400.85,379.43a1.79,1.79,0,0,0,0,3.58A1.79,1.79,0,0,0,400.85,379.43Z"/><path class="cls-4" d="M576,397.09a1.79,1.79,0,0,0,0,3.58A1.79,1.79,0,0,0,576,397.09Z"/><path class="cls-4" d="M585.53,347.46a1.79,1.79,0,0,0,0,3.58A1.79,1.79,0,0,0,585.53,347.46Z"/><path class="cls-4" d="M575.51,277.31a1.79,1.79,0,0,0,0,3.58A1.79,1.79,0,0,0,575.51,277.31Z"/><path class="cls-4" d="M569.78,225.29a1.79,1.79,0,0,0,0,3.58A1.79,1.79,0,0,0,569.78,225.29Z"/><path class="cls-4" d="M523.49,229.59a1.79,1.79,0,0,0,0,3.58A1.79,1.79,0,0,0,523.49,229.59Z"/><path class="cls-4" d="M366,326.7c-3.23,0-3.23,5,0,5S369.25,326.7,366,326.7Z"/><path class="cls-4" d="M328.32,276.12c-3.23,0-3.23,5,0,5S331.55,276.12,328.32,276.12Z"/><path class="cls-4" d="M319.25,232.69c-3.23,0-3.23,5,0,5S322.48,232.69,319.25,232.69Z"/><path class="cls-4" d="M370.79,234.12c-3.23,0-3.23,5,0,5S374,234.12,370.79,234.12Z"/><path class="cls-4" d="M389.88,275.64c-3.23,0-3.23,5,0,5S393.11,275.64,389.88,275.64Z"/><path class="cls-4" d="M446.67,258c-3.24,0-3.24,5,0,5S449.9,258,446.67,258Z"/><path class="cls-4" d="M422.8,218.85c-3.23,0-3.23,5,0,5S426,218.85,422.8,218.85Z"/><path class="cls-4" d="M503.93,230.78c-3.23,0-3.23,5,0,5S507.16,230.78,503.93,230.78Z"/><path class="cls-4" d="M519.2,267.05c-3.23,0-3.23,5,0,5S522.43,267.05,519.2,267.05Z"/><path class="cls-4" d="M568.83,239.85c-3.23,0-3.23,5,0,5S572.06,239.85,568.83,239.85Z"/><path class="cls-4" d="M532.56,221.72c-3.23,0-3.23,5,0,5S535.79,221.72,532.56,221.72Z"/><path class="cls-4" d="M556,329.09c-3.24,0-3.24,5,0,5S559.18,329.09,556,329.09Z"/><path class="cls-4" d="M523.49,306.66c-3.23,0-3.23,5,0,5S526.73,306.66,523.49,306.66Z"/><path class="cls-4" d="M547.83,282.8c-3.23,0-3.23,5,0,5S551.06,282.8,547.83,282.8Z"/><path class="cls-4" d="M490.09,391.12c-3.23,0-3.23,5,0,5S493.32,391.12,490.09,391.12Z"/><path class="cls-4" d="M508.7,346.27c-3.23,0-3.23,5,0,5S511.93,346.27,508.7,346.27Z"/><path class="cls-4" d="M472.91,361.54c-3.23,0-3.23,5,0,5S476.14,361.54,472.91,361.54Z"/><path class="cls-4" d="M455.73,332.43c-3.23,0-3.23,5,0,5S459,332.43,455.73,332.43Z"/><path class="cls-4" d="M461.94,384.44c-3.24,0-3.24,5,0,5S465.17,384.44,461.94,384.44Z"/><path class="cls-4" d="M398.47,350.56c-3.23,0-3.23,5,0,5S401.7,350.56,398.47,350.56Z"/><path class="cls-4" d="M432.83,301.41c-3.24,0-3.24,5,0,5S436.06,301.41,432.83,301.41Z"/><path class="cls-4" d="M351.7,393.51c-3.23,0-3.23,5,0,5S354.93,393.51,351.7,393.51Z"/><path class="cls-4" d="M304.93,362c-3.23,0-3.23,5,0,5S308.17,362,304.93,362Z"/><path class="cls-4" d="M398.94,412.6c-3.23,0-3.23,5,0,5S402.18,412.6,398.94,412.6Z"/><path class="cls-4" d="M553,386c4.62,0,4.62-7.16,0-7.16S548.34,386,553,386Z"/><path class="cls-4" d="M328.2,313c4.61,0,4.61-7.16,0-7.16S323.58,313,328.2,313Z"/><path class="cls-4" d="M355.4,392.43c4.61,0,4.61-7.15,0-7.15S350.78,392.43,355.4,392.43Z"/><path class="cls-4" d="M555.82,280.05c4.62,0,4.62-7.16,0-7.16S551.21,280.05,555.82,280.05Z"/><path class="cls-4" d="M406.93,303.67c4.62,0,4.62-7.15,0-7.15S402.32,303.67,406.93,303.67Z"/><path class="cls-4" d="M460.62,327.3c4.62,0,4.62-7.16,0-7.16S456,327.3,460.62,327.3Z"/><path class="cls-4" d="M491.4,419.75a1.79,1.79,0,0,0,0-3.57A1.79,1.79,0,0,0,491.4,419.75Z"/><path class="cls-4" d="M541.51,383a1.79,1.79,0,0,0,0-3.58A1.79,1.79,0,0,0,541.51,383Z"/><path class="cls-4" d="M452.27,367.74a1.79,1.79,0,0,0,0-3.58A1.79,1.79,0,0,0,452.27,367.74Z"/><path class="cls-4" d="M410.27,395.42a1.79,1.79,0,0,0,0-3.58A1.79,1.79,0,0,0,410.27,395.42Z"/><path class="cls-4" d="M466.11,399.23a1.79,1.79,0,0,0,0-3.57A1.79,1.79,0,0,0,466.11,399.23Z"/><path class="cls-4" d="M509.06,335.77a1.79,1.79,0,0,0,0-3.58A1.79,1.79,0,0,0,509.06,335.77Z"/><path class="cls-4" d="M414.57,335.29a1.79,1.79,0,0,0,0-3.58A1.79,1.79,0,0,0,414.57,335.29Z"/><path class="cls-4" d="M364.94,337.2a1.79,1.79,0,0,0,0-3.58A1.79,1.79,0,0,0,364.94,337.2Z"/><path class="cls-4" d="M341.56,367.74a1.79,1.79,0,0,0,0-3.58A1.79,1.79,0,0,0,341.56,367.74Z"/><path class="cls-4" d="M312.92,316.68a1.79,1.79,0,0,0,0-3.58A1.79,1.79,0,0,0,312.92,316.68Z"/><path class="cls-4" d="M361.12,259.41a1.79,1.79,0,0,0,0-3.58A1.79,1.79,0,0,0,361.12,259.41Z"/><path class="cls-4" d="M447,263.71a1.79,1.79,0,0,0,0-3.58A1.79,1.79,0,0,0,447,263.71Z"/><path class="cls-4" d="M494.74,274.68a1.79,1.79,0,0,0,0-3.58A1.79,1.79,0,0,0,494.74,274.68Z"/><path class="cls-4" d="M484.24,291.38a1.79,1.79,0,0,0,0-3.57A1.79,1.79,0,0,0,484.24,291.38Z"/><path class="cls-4" d="M537.69,303.32a1.79,1.79,0,0,0,0-3.58A1.79,1.79,0,0,0,537.69,303.32Z"/><path class="cls-4" d="M572.05,333.38a1.79,1.79,0,0,0,0-3.58A1.79,1.79,0,0,0,572.05,333.38Z"/><path class="cls-4" d="M525.28,370.6a1.79,1.79,0,0,0,0-3.58A1.79,1.79,0,0,0,525.28,370.6Z"/><path class="cls-4" d="M489,360.1a1.79,1.79,0,0,0,0-3.58A1.79,1.79,0,0,0,489,360.1Z"/><path class="cls-4" d="M570.62,280.41a1.79,1.79,0,0,0,0-3.58A1.79,1.79,0,0,0,570.62,280.41Z"/><path class="cls-4" d="M573,251.3a1.79,1.79,0,0,0,0-3.58A1.79,1.79,0,0,0,573,251.3Z"/><path class="cls-4" d="M500.47,240.8a1.79,1.79,0,0,0,0-3.58A1.79,1.79,0,0,0,500.47,240.8Z"/><path class="cls-4" d="M458.47,257a1.79,1.79,0,0,0,0-3.58A1.79,1.79,0,0,0,458.47,257Z"/><path class="cls-4" d="M460.38,296.64a1.79,1.79,0,0,0,0-3.58A1.79,1.79,0,0,0,460.38,296.64Z"/><path class="cls-4" d="M402.64,264.18a1.79,1.79,0,0,0,0-3.57A1.79,1.79,0,0,0,402.64,264.18Z"/><path class="cls-4" d="M322.47,257.5a1.79,1.79,0,0,0,0-3.57A1.79,1.79,0,0,0,322.47,257.5Z"/><path class="cls-4" d="M352.05,280.41a1.79,1.79,0,0,0,0-3.58A1.79,1.79,0,0,0,352.05,280.41Z"/><path class="cls-4" d="M313.88,342.45a1.79,1.79,0,0,0,0-3.58A1.79,1.79,0,0,0,313.88,342.45Z"/><path class="cls-4" d="M304.34,392.08a1.79,1.79,0,0,0,0-3.58A1.79,1.79,0,0,0,304.34,392.08Z"/><path class="cls-4" d="M523.85,412.84c3.23,0,3.23-5,0-5S520.62,412.84,523.85,412.84Z"/><path class="cls-4" d="M333.92,410.45c3.23,0,3.23-5,0-5S330.69,410.45,333.92,410.45Z"/><path class="cls-4" d="M399.78,348.41c3.23,0,3.23-5,0-5S396.54,348.41,399.78,348.41Z"/><path class="cls-4" d="M381.17,393.27c3.23,0,3.23-5,0-5S377.93,393.27,381.17,393.27Z"/><path class="cls-4" d="M417,378c3.23,0,3.23-5,0-5S413.72,378,417,378Z"/><path class="cls-4" d="M434.14,407.11c3.23,0,3.23-5,0-5S430.9,407.11,434.14,407.11Z"/><path class="cls-4" d="M384.51,235.79c3.23,0,3.23-5,0-5S381.27,235.79,384.51,235.79Z"/><path class="cls-4" d="M369.23,295.92c3.24,0,3.24-5,0-5S366,295.92,369.23,295.92Z"/><path class="cls-4" d="M427.93,355.09c3.23,0,3.23-5,0-5S424.7,355.09,427.93,355.09Z"/><path class="cls-4" d="M491.4,389c3.23,0,3.23-5,0-5S488.17,389,491.4,389Z"/><path class="cls-4" d="M538.17,346c3.23,0,3.23-5,0-5S534.93,346,538.17,346Z"/><path class="cls-4" d="M584.93,377.52c3.23,0,3.23-5,0-5S581.7,377.52,584.93,377.52Z"/><path class="cls-4" d="M588.27,304c3.23,0,3.23-5,0-5S585,304,588.27,304Z"/><path class="cls-4" d="M592.09,232.45c3.23,0,3.23-5,0-5S588.86,232.45,592.09,232.45Z"/><path class="cls-4" d="M538.64,252.49c3.23,0,3.23-5,0-5S535.41,252.49,538.64,252.49Z"/><path class="cls-4" d="M504.28,291.62c3.24,0,3.24-5,0-5S501.05,291.62,504.28,291.62Z"/><path class="cls-4" d="M490.92,326.94c3.23,0,3.23-5,0-5S487.69,326.94,490.92,326.94Z"/><path class="cls-4" d="M438.91,244.86c3.23,0,3.23-5,0-5S435.68,244.86,438.91,244.86Z"/><path class="cls-4" d="M353,231.5c3.23,0,3.23-5,0-5S349.78,231.5,353,231.5Z"/><path class="cls-4" d="M312,240.56c3.23,0,3.23-5,0-5S308.74,240.56,312,240.56Z"/><path class="cls-4" d="M308.63,287.33c3.23,0,3.23-5,0-5S305.4,287.33,308.63,287.33Z"/><path class="cls-4" d="M456.56,239.13c3.23,0,3.23-5,0-5S453.33,239.13,456.56,239.13Z"/><path class="cls-4" d="M446.07,303.55c3.23,0,3.23-5,0-5S442.83,303.55,446.07,303.55Z"/><path class="cls-4" d="M256.24,386c4.62,0,4.62-7.16,0-7.16S251.63,386,256.24,386Z"/><path class="cls-4" d="M31.48,313c4.61,0,4.61-7.16,0-7.16S26.86,313,31.48,313Z"/><path class="cls-4" d="M58.68,392.43c4.61,0,4.61-7.15,0-7.15S54.06,392.43,58.68,392.43Z"/><path class="cls-4" d="M259.1,280.05c4.62,0,4.62-7.16,0-7.16S254.49,280.05,259.1,280.05Z"/><path class="cls-4" d="M110.22,303.67c4.61,0,4.61-7.15,0-7.15S105.6,303.67,110.22,303.67Z"/><path class="cls-4" d="M163.9,327.3c4.62,0,4.62-7.16,0-7.16S159.29,327.3,163.9,327.3Z"/><path class="cls-4" d="M194.68,419.75a1.79,1.79,0,0,0,0-3.57A1.79,1.79,0,0,0,194.68,419.75Z"/><path class="cls-4" d="M244.79,383a1.79,1.79,0,0,0,0-3.58A1.79,1.79,0,0,0,244.79,383Z"/><path class="cls-4" d="M155.55,367.74a1.79,1.79,0,0,0,0-3.58A1.79,1.79,0,0,0,155.55,367.74Z"/><path class="cls-4" d="M113.56,395.42a1.79,1.79,0,0,0,0-3.58A1.79,1.79,0,0,0,113.56,395.42Z"/><path class="cls-4" d="M169.39,399.23a1.79,1.79,0,0,0,0-3.57A1.79,1.79,0,0,0,169.39,399.23Z"/><path class="cls-4" d="M212.34,335.77a1.79,1.79,0,0,0,0-3.58A1.79,1.79,0,0,0,212.34,335.77Z"/><path class="cls-4" d="M117.85,335.29a1.79,1.79,0,0,0,0-3.58A1.79,1.79,0,0,0,117.85,335.29Z"/><path class="cls-4" d="M68.22,337.2a1.79,1.79,0,0,0,0-3.58A1.79,1.79,0,0,0,68.22,337.2Z"/><path class="cls-4" d="M44.84,367.74a1.79,1.79,0,0,0,0-3.58A1.79,1.79,0,0,0,44.84,367.74Z"/><path class="cls-4" d="M16.21,316.68a1.79,1.79,0,0,0,0-3.58A1.79,1.79,0,0,0,16.21,316.68Z"/><path class="cls-4" d="M64.4,259.41a1.79,1.79,0,0,0,0-3.58A1.79,1.79,0,0,0,64.4,259.41Z"/><path class="cls-4" d="M150.3,263.71a1.79,1.79,0,0,0,0-3.58A1.79,1.79,0,0,0,150.3,263.71Z"/><path class="cls-4" d="M198,274.68a1.79,1.79,0,0,0,0-3.58A1.79,1.79,0,0,0,198,274.68Z"/><path class="cls-4" d="M187.52,291.38a1.79,1.79,0,0,0,0-3.57A1.79,1.79,0,0,0,187.52,291.38Z"/><path class="cls-4" d="M241,303.32a1.79,1.79,0,0,0,0-3.58A1.79,1.79,0,0,0,241,303.32Z"/><path class="cls-4" d="M275.33,333.38a1.79,1.79,0,0,0,0-3.58A1.79,1.79,0,0,0,275.33,333.38Z"/><path class="cls-4" d="M228.56,370.6a1.79,1.79,0,0,0,0-3.58A1.79,1.79,0,0,0,228.56,370.6Z"/><path class="cls-4" d="M192.3,360.1a1.79,1.79,0,0,0,0-3.58A1.79,1.79,0,0,0,192.3,360.1Z"/><path class="cls-4" d="M273.9,280.41a1.79,1.79,0,0,0,0-3.58A1.79,1.79,0,0,0,273.9,280.41Z"/><path class="cls-4" d="M276.28,251.3a1.79,1.79,0,0,0,0-3.58A1.79,1.79,0,0,0,276.28,251.3Z"/><path class="cls-4" d="M203.75,240.8a1.79,1.79,0,0,0,0-3.58A1.79,1.79,0,0,0,203.75,240.8Z"/><path class="cls-4" d="M161.75,257a1.79,1.79,0,0,0,0-3.58A1.79,1.79,0,0,0,161.75,257Z"/><path class="cls-4" d="M163.66,296.64a1.79,1.79,0,0,0,0-3.58A1.79,1.79,0,0,0,163.66,296.64Z"/><path class="cls-4" d="M105.92,264.18a1.79,1.79,0,0,0,0-3.57A1.79,1.79,0,0,0,105.92,264.18Z"/><path class="cls-4" d="M25.75,257.5a1.79,1.79,0,0,0,0-3.57A1.79,1.79,0,0,0,25.75,257.5Z"/><path class="cls-4" d="M55.34,280.41a1.79,1.79,0,0,0,0-3.58A1.79,1.79,0,0,0,55.34,280.41Z"/><path class="cls-4" d="M17.16,342.45a1.79,1.79,0,0,0,0-3.58A1.79,1.79,0,0,0,17.16,342.45Z"/><path class="cls-4" d="M7.62,392.08a1.79,1.79,0,0,0,0-3.58A1.79,1.79,0,0,0,7.62,392.08Z"/><path class="cls-4" d="M227.13,412.84c3.23,0,3.23-5,0-5S223.9,412.84,227.13,412.84Z"/><path class="cls-4" d="M37.2,410.45c3.23,0,3.23-5,0-5S34,410.45,37.2,410.45Z"/><path class="cls-4" d="M103.06,348.41c3.23,0,3.23-5,0-5S99.83,348.41,103.06,348.41Z"/><path class="cls-4" d="M84.45,393.27c3.23,0,3.23-5,0-5S81.22,393.27,84.45,393.27Z"/><path class="cls-4" d="M120.24,378c3.23,0,3.23-5,0-5S117,378,120.24,378Z"/><path class="cls-4" d="M137.42,407.11c3.23,0,3.23-5,0-5S134.19,407.11,137.42,407.11Z"/><path class="cls-4" d="M87.79,235.79c3.23,0,3.23-5,0-5S84.56,235.79,87.79,235.79Z"/><path class="cls-4" d="M72.52,295.92c3.23,0,3.23-5,0-5S69.29,295.92,72.52,295.92Z"/><path class="cls-4" d="M131.21,355.09c3.23,0,3.23-5,0-5S128,355.09,131.21,355.09Z"/><path class="cls-4" d="M194.68,389c3.23,0,3.23-5,0-5S191.45,389,194.68,389Z"/><path class="cls-4" d="M241.45,346c3.23,0,3.23-5,0-5S238.22,346,241.45,346Z"/><path class="cls-4" d="M288.21,377.52c3.24,0,3.24-5,0-5S285,377.52,288.21,377.52Z"/><path class="cls-4" d="M291.56,304c3.23,0,3.23-5,0-5S288.32,304,291.56,304Z"/><path class="cls-4" d="M295.37,232.45c3.23,0,3.23-5,0-5S292.14,232.45,295.37,232.45Z"/><path class="cls-4" d="M241.93,252.49c3.23,0,3.23-5,0-5S238.69,252.49,241.93,252.49Z"/><path class="cls-4" d="M207.57,291.62c3.23,0,3.23-5,0-5S204.34,291.62,207.57,291.62Z"/><path class="cls-4" d="M194.2,326.94c3.24,0,3.24-5,0-5S191,326.94,194.2,326.94Z"/><path class="cls-4" d="M142.19,244.86c3.23,0,3.23-5,0-5S139,244.86,142.19,244.86Z"/><path class="cls-4" d="M56.29,231.5c3.23,0,3.23-5,0-5S53.06,231.5,56.29,231.5Z"/><path class="cls-4" d="M15.25,240.56c3.23,0,3.23-5,0-5S12,240.56,15.25,240.56Z"/><path class="cls-4" d="M11.91,287.33c3.23,0,3.23-5,0-5S8.68,287.33,11.91,287.33Z"/><path class="cls-4" d="M159.85,239.13c3.23,0,3.23-5,0-5S156.61,239.13,159.85,239.13Z"/><path class="cls-4" d="M149.35,303.55c3.23,0,3.23-5,0-5S146.12,303.55,149.35,303.55Z"/></g><g id="Deer-2" data-name="Deer"><path class="cls-5" d="M391.85.24c4.45,40.62-6.35,77.33-4.15,89.57,1.84,10.29,41.95,2.34,58-13s56.19-63.35,62.94-63.35S467,83.47,445.66,98.79s-62.21,11.54-66,24.65c-4,13.84-13.08,62.24-27.87,69.45s-20.56-14.11-20.56-14.11c23.85-37,50.25-122.45,44.94-178.54Z"/><path class="cls-5" d="M219.91.24c-4.44,40.62,6.35,77.33,4.16,89.57-1.85,10.29-42,2.34-58-13s-56.19-63.35-62.94-63.35,41.6,70.06,62.94,85.38,62.21,11.54,66,24.65c4,13.84,13.07,62.24,27.86,69.45s20.56-14.11,20.56-14.11c-23.85-37-50.25-122.45-44.94-178.54Z"/><path class="cls-6" d="M445.11,136.77c-24.82,6-65.19,52.8-70.27,70.37,0,0-3.66-.36,17,40.42a2.76,2.76,0,0,0,2.42,1.51c7.89.08,41.54.36,50.84-.6,60.33-4.8,58.78-42.55,119-93.74a2.76,2.76,0,0,0-.6-4.59C526.47,132.45,483.71,127.75,445.11,136.77Z"/><path class="cls-6" d="M152.81,145.45c24.82,6,65.19,52.8,70.27,70.37,0,0,3.66-.36-17,40.41a2.76,2.76,0,0,1-2.42,1.51c-7.89.08-41.54.37-50.84-.59-60.33-4.81-58.78-42.56-119-93.75a2.75,2.75,0,0,1,.61-4.58C71.45,141.12,114.21,136.43,152.81,145.45Z"/><path class="cls-7" d="M416.22,285c0-.68,0-1.35,0-2,1-62.4-50.28-113.65-112.67-112.54A110.68,110.68,0,0,0,194.92,281.12c0,1.36,0,2.71.07,4.06a125.22,125.22,0,0,1-11.65,58.23,134.66,134.66,0,0,0-12.92,57.73,136.63,136.63,0,0,0,1.14,17.62H439.65a136.63,136.63,0,0,0,1.14-17.62A134.53,134.53,0,0,0,428,343.68,127.29,127.29,0,0,1,416.22,285Z"/><path class="cls-8" d="M406.93,413.41c0-42.88-45.36-77.63-101.33-77.63s-101.33,34.75-101.33,77.63c0,1.8.09,3.58.25,5.35H406.69C406.85,417,406.93,415.21,406.93,413.41Z"/><ellipse class="cls-9" cx="270.22" cy="357.85" rx="21.08" ry="11.07" transform="translate(-72.99 69.26) rotate(-12.88)"/><ellipse class="cls-10" cx="246.59" cy="296.96" rx="9.94" ry="15.85"/><ellipse class="cls-10" cx="364.62" cy="296.96" rx="9.94" ry="15.85"/><path class="cls-11" d="M232,264.43c3.81.86,31.5-4.44,27.6-14.08C256.55,242.76,228.28,263.58,232,264.43Z"/><path class="cls-11" d="M379.79,265.26c-6.15.42-32.12-4.07-28.21-13.72C354.66,244,383.62,265,379.79,265.26Z"/><circle class="cls-12" cx="242.71" cy="288.29" r="2.91"/><circle class="cls-12" cx="360.66" cy="288.29" r="2.91"/></g><text class="cls-13" transform="translate(251.61 55.1)">MER<tspan class="cls-14" x="68.16" y="0">R</tspan><tspan x="87.71" y="0">Y</tspan><tspan class="cls-15" x="4.1" y="30">X</tspan><tspan x="24.93" y="30">-MAS</tspan></text></g></g></svg>
