<svg xmlns="http://www.w3.org/2000/svg" xmlns:xlink="http://www.w3.org/1999/xlink" viewBox="0 0 596 419"><defs><style>.cls-1,.cls-19,.cls-27,.cls-29,.cls-37{fill:none;}.cls-12,.cls-2{fill:#fff;}.cls-2{opacity:0.5;}.cls-3{fill:#7ac9b4;opacity:0.25;}.cls-4{fill:#754c24;}.cls-5{clip-path:url(#clip-path);}.cls-6{fill:#f7f7f7;}.cls-7{fill:#0050bb;}.cls-8{fill:#ec0018;}.cls-9{clip-path:url(#clip-path-2);}.cls-10{fill:#00b0f6;}.cls-11{fill:#0a4;}.cls-13{clip-path:url(#clip-path-3);}.cls-14{fill:#ffda00;}.cls-15{clip-path:url(#clip-path-4);}.cls-16{clip-path:url(#clip-path-5);}.cls-17{fill:#f08346;}.cls-18{fill:#008a4d;}.cls-19{stroke:#0050bb;}.cls-19,.cls-27,.cls-29,.cls-37{stroke-miterlimit:10;}.cls-20{clip-path:url(#clip-path-6);}.cls-21{fill:#006b51;}.cls-22{fill:#ce001e;}.cls-23{clip-path:url(#clip-path-7);}.cls-24{clip-path:url(#clip-path-8);}.cls-25{clip-path:url(#clip-path-9);}.cls-26{clip-path:url(#clip-path-10);}.cls-27,.cls-29{stroke:#00763f;}.cls-27{stroke-width:0.75px;}.cls-28{fill:#00aaea;}.cls-29{stroke-width:0.5px;}.cls-30{clip-path:url(#clip-path-11);}.cls-31{fill:#00a65a;}.cls-32{fill:#ff9300;}.cls-33{clip-path:url(#clip-path-12);}.cls-34{clip-path:url(#clip-path-13);}.cls-35{fill:#73d5f8;}.cls-36{clip-path:url(#clip-path-14);}.cls-37{stroke:#00a441;}.cls-38{clip-path:url(#clip-path-15);}.cls-39{clip-path:url(#clip-path-16);}.cls-40{clip-path:url(#clip-path-17);}.cls-41{fill:#6db0e3;}.cls-42{clip-path:url(#clip-path-18);}.cls-43{clip-path:url(#clip-path-19);}.cls-44{clip-path:url(#clip-path-20);}.cls-45{clip-path:url(#clip-path-21);}.cls-46{clip-path:url(#clip-path-22);}.cls-47{clip-path:url(#clip-path-23);}.cls-48{clip-path:url(#clip-path-24);}.cls-49{clip-path:url(#clip-path-25);}.cls-50{clip-path:url(#clip-path-26);}.cls-51{clip-path:url(#clip-path-27);}.cls-52{clip-path:url(#clip-path-28);}.cls-53{clip-path:url(#clip-path-29);}.cls-54{clip-path:url(#clip-path-30);}.cls-55{clip-path:url(#clip-path-31);}.cls-56{clip-path:url(#clip-path-32);}.cls-57{clip-path:url(#clip-path-33);}.cls-58{clip-path:url(#clip-path-34);}.cls-59{clip-path:url(#clip-path-35);}.cls-60{clip-path:url(#clip-path-36);}.cls-61{fill:#1a1a1a;}</style><clipPath id="clip-path"><path class="cls-1" d="M564.12,304.05l-11.36-1.44,2.07-5,6.29-.79Zm2.82,6.78-18.57,2.35-2,4.8,24.85,3.14Zm-.19-.46-2.42-5.82-11.76-1.49-4,9.6Zm-5.82-14-2.79-6.7-3.09,7.44Zm-14.75,22.07-3.69,8.88h31.3l-2.36-5.68Z"/></clipPath><clipPath id="clip-path-2"><path class="cls-1" d="M173.16,303.85l-11.36-1.44,2.07-5,6.29-.79Zm2.82,6.79L157.41,313l-2,4.8,24.85,3.14Zm-.19-.47-2.42-5.82-11.76-1.49-4,9.6Zm-5.82-14-2.79-6.7-3.09,7.45Zm-14.75,22.07-3.69,8.88h31.3l-2.36-5.68Z"/></clipPath><clipPath id="clip-path-3"><path class="cls-1" d="M499,369.36l-11.36-1.44,2.07-5,6.29-.8Zm2.82,6.79-18.57,2.34-2,4.8,24.85,3.15Zm-.19-.46-2.42-5.82-11.76-1.49-4,9.6Zm-5.82-14L493,355l-3.09,7.44ZM481,383.75l-3.69,8.88h31.3l-2.36-5.69Z"/></clipPath><clipPath id="clip-path-4"><path class="cls-1" d="M173.16,369.36l-11.36-1.44,2.07-5,6.29-.8Zm2.82,6.79-18.57,2.34-2,4.8,24.85,3.15Zm-.19-.46-2.42-5.82-11.76-1.49-4,9.6Zm-5.82-14-2.79-6.7-3.09,7.44Zm-14.75,22.07-3.69,8.88h31.3l-2.36-5.69Z"/></clipPath><clipPath id="clip-path-5"><path class="cls-1" d="M42.84,303.9l-11.36-1.44,2.07-5,6.29-.79Zm2.82,6.79L27.08,313l-2,4.8L49.94,321Zm-.19-.47-2.42-5.82-11.76-1.49-4,9.6Zm-5.83-14-2.78-6.7L33.77,297ZM24.9,318.28l-3.69,8.88h31.3l-2.36-5.68Z"/></clipPath><clipPath id="clip-path-6"><path class="cls-1" d="M303.48,369.36l-11.36-1.44,2.07-5,6.29-.8Zm2.82,6.79-18.57,2.34-2,4.8,24.85,3.15Zm-.19-.46-2.42-5.82-11.76-1.49-4,9.6Zm-5.82-14L297.5,355l-3.09,7.44Zm-14.75,22.07-3.69,8.88h31.3l-2.36-5.69Z"/></clipPath><clipPath id="clip-path-7"><path class="cls-1" d="M42.84,369.48,31.48,368l2.07-5,6.29-.8Zm2.82,6.79-18.58,2.34-2,4.8,24.85,3.15Zm-.19-.46L43.05,370,31.29,368.5l-4,9.6Zm-5.83-14-2.78-6.7-3.09,7.44ZM24.9,383.87l-3.69,8.88h31.3l-2.36-5.69Z"/></clipPath><clipPath id="clip-path-8"><path class="cls-1" d="M238.32,303.81,227,302.37l2.07-5,6.29-.79Zm2.82,6.79-18.57,2.34-2,4.8,24.85,3.14Zm-.19-.47-2.42-5.82-11.76-1.49-4,9.6Zm-5.82-14-2.79-6.7-3.09,7.45Zm-14.75,22.07-3.69,8.88H248l-2.36-5.68Z"/></clipPath><clipPath id="clip-path-9"><path class="cls-1" d="M368.64,369.36l-11.36-1.44,2.07-5,6.29-.8Zm2.82,6.79-18.57,2.34-2,4.8,24.85,3.15Zm-.19-.46-2.42-5.82-11.76-1.49-4,9.6Zm-5.82-14-2.79-6.7-3.09,7.44ZM350.7,383.75,347,392.63h31.3L376,386.94Z"/></clipPath><clipPath id="clip-path-10"><path class="cls-1" d="M368.64,303.9l-11.36-1.44,2.07-5,6.29-.79Zm2.82,6.79L352.89,313l-2,4.8L375.74,321Zm-.19-.47-2.42-5.82-11.76-1.49-4,9.6Zm-5.82-14-2.79-6.7L359.57,297ZM350.7,318.28,347,327.16h31.3L376,321.48Z"/></clipPath><clipPath id="clip-path-11"><path class="cls-1" d="M433.8,369.29l-11.36-1.44,2.07-5,6.29-.79Zm2.82,6.79-18.57,2.34-2,4.8,24.85,3.14Zm-.19-.47L434,369.79l-11.76-1.49-4,9.6Zm-5.82-14-2.79-6.7-3.09,7.44Zm-14.75,22.07-3.69,8.88h31.3l-2.36-5.68Z"/></clipPath><clipPath id="clip-path-12"><path class="cls-1" d="M108,303.9l-11.36-1.44,2.07-5,6.29-.79Zm2.82,6.79L92.24,313l-2,4.8L115.1,321Zm-.19-.47-2.42-5.82-11.76-1.49-4,9.6Zm-5.83-14-2.78-6.7L98.93,297ZM90.06,318.28l-3.69,8.88h31.3l-2.36-5.68Z"/></clipPath><clipPath id="clip-path-13"><path class="cls-1" d="M238.32,369.42,227,368l2.07-5,6.29-.79Zm2.82,6.79-18.57,2.35-2,4.8,24.85,3.14Zm-.19-.46-2.42-5.82-11.76-1.49-4,9.6Zm-5.82-14-2.79-6.7-3.09,7.44Zm-14.75,22.07-3.69,8.88H248L245.63,387Z"/></clipPath><clipPath id="clip-path-14"><path class="cls-1" d="M564.12,369.33l-11.36-1.43,2.07-5,6.29-.8Zm2.82,6.79-18.57,2.34-2,4.81,24.85,3.14Zm-.19-.46-2.42-5.82-11.76-1.49-4,9.6Zm-5.82-14-2.79-6.7-3.09,7.44Zm-14.75,22.07-3.69,8.88h31.3l-2.36-5.69Z"/></clipPath><clipPath id="clip-path-15"><path class="cls-1" d="M433.8,303.9l-11.36-1.44,2.07-5,6.29-.79Zm2.82,6.79L418.05,313l-2,4.8L440.9,321Zm-.19-.47L434,304.4l-11.76-1.49-4,9.6Zm-5.82-14-2.79-6.7L424.73,297Zm-14.75,22.07-3.69,8.88h31.3l-2.36-5.68Z"/></clipPath><clipPath id="clip-path-16"><path class="cls-1" d="M108,369.36l-11.36-1.44,2.07-5,6.29-.8Zm2.82,6.79-18.58,2.34-2,4.8,24.85,3.15Zm-.19-.46-2.42-5.82-11.76-1.49-4,9.6Zm-5.83-14L102,355l-3.09,7.44ZM90.06,383.75l-3.69,8.88h31.3l-2.36-5.69Z"/></clipPath><clipPath id="clip-path-17"><path class="cls-1" d="M499,303.9l-11.36-1.44,2.07-5,6.29-.79Zm2.82,6.79L483.21,313l-2,4.8L506.06,321Zm-.19-.47-2.42-5.82-11.76-1.49-4,9.6Zm-5.82-14-2.79-6.7L489.89,297ZM481,318.28l-3.69,8.88h31.3l-2.36-5.68Z"/></clipPath><clipPath id="clip-path-18"><path class="cls-1" d="M303.48,303.9l-11.36-1.44,2.07-5,6.29-.79Zm2.82,6.79L287.73,313l-2,4.8L310.58,321Zm-.19-.47-2.42-5.82-11.76-1.49-4,9.6Zm-5.82-14-2.79-6.7L294.41,297Zm-14.75,22.07-3.69,8.88h31.3l-2.36-5.68Z"/></clipPath><clipPath id="clip-path-19"><path class="cls-1" d="M564.12,30.85l-11.36-1.43,2.07-5,6.29-.79Zm2.82,6.79L548.37,40l-2,4.8,24.85,3.14Zm-.19-.46-2.42-5.82-11.76-1.49-4,9.6Zm-5.82-14-2.79-6.7-3.09,7.44ZM546.18,45.24l-3.69,8.88h31.3l-2.36-5.68Z"/></clipPath><clipPath id="clip-path-20"><path class="cls-1" d="M173.16,30.66,161.8,29.22l2.07-5,6.29-.79ZM176,37.45l-18.57,2.34-2,4.8,24.85,3.14Zm-.19-.47-2.42-5.82-11.76-1.49-4,9.6ZM170,23l-2.79-6.7-3.09,7.44ZM155.22,45l-3.69,8.88h31.3l-2.36-5.68Z"/></clipPath><clipPath id="clip-path-21"><path class="cls-1" d="M499,96.17,487.6,94.73l2.07-5L496,89Zm2.82,6.79-18.57,2.34-2,4.8,24.85,3.15Zm-.19-.46-2.42-5.82-11.76-1.49-4,9.6Zm-5.82-14L493,81.79l-3.09,7.44ZM481,110.56l-3.69,8.88h31.3l-2.36-5.69Z"/></clipPath><clipPath id="clip-path-22"><path class="cls-1" d="M173.16,96.17,161.8,94.73l2.07-5,6.29-.79ZM176,103l-18.57,2.34-2,4.8,24.85,3.15Zm-.19-.46-2.42-5.82-11.76-1.49-4,9.6Zm-5.82-14-2.79-6.7-3.09,7.44Zm-14.75,22.07-3.69,8.88h31.3l-2.36-5.69Z"/></clipPath><clipPath id="clip-path-23"><path class="cls-1" d="M42.84,30.71,31.48,29.27l2.07-5,6.29-.79Zm2.82,6.79L27.08,39.84l-2,4.8,24.85,3.14ZM45.47,37l-2.42-5.82L31.29,29.72l-4,9.6ZM39.64,23l-2.78-6.7-3.09,7.44ZM24.9,45.09,21.21,54h31.3l-2.36-5.68Z"/></clipPath><clipPath id="clip-path-24"><path class="cls-1" d="M303.48,96.17l-11.36-1.44,2.07-5,6.29-.79ZM306.3,103l-18.57,2.34-2,4.8,24.85,3.15Zm-.19-.46-2.42-5.82-11.76-1.49-4,9.6Zm-5.82-14-2.79-6.7-3.09,7.44Zm-14.75,22.07-3.69,8.88h31.3l-2.36-5.69Z"/></clipPath><clipPath id="clip-path-25"><path class="cls-1" d="M42.84,96.29,31.48,94.85l2.07-5,6.29-.79Zm2.82,6.79-18.58,2.34-2,4.8,24.85,3.15Zm-.19-.46L43.05,96.8,31.29,95.31l-4,9.6Zm-5.83-14-2.78-6.7-3.09,7.44ZM24.9,110.68l-3.69,8.88h31.3l-2.36-5.69Z"/></clipPath><clipPath id="clip-path-26"><path class="cls-1" d="M238.32,30.62,227,29.18l2.07-5,6.29-.79Zm2.82,6.79-18.57,2.34-2,4.8,24.85,3.14Zm-.19-.47-2.42-5.82-11.76-1.49-4,9.6Zm-5.82-14-2.79-6.7-3.09,7.44ZM220.38,45l-3.69,8.88H248l-2.36-5.68Z"/></clipPath><clipPath id="clip-path-27"><path class="cls-1" d="M368.64,96.17l-11.36-1.44,2.07-5,6.29-.79Zm2.82,6.79-18.57,2.34-2,4.8,24.85,3.15Zm-.19-.46-2.42-5.82-11.76-1.49-4,9.6Zm-5.82-14-2.79-6.7-3.09,7.44ZM350.7,110.56,347,119.44h31.3L376,113.75Z"/></clipPath><clipPath id="clip-path-28"><path class="cls-1" d="M368.64,30.71l-11.36-1.44,2.07-5,6.29-.79Zm2.82,6.79-18.57,2.34-2,4.8,24.85,3.14Zm-.19-.47-2.42-5.82-11.76-1.49-4,9.6Zm-5.82-14-2.79-6.7-3.09,7.44ZM350.7,45.09,347,54h31.3L376,48.29Z"/></clipPath><clipPath id="clip-path-29"><path class="cls-1" d="M433.8,96.1l-11.36-1.44,2.07-5,6.29-.79Zm2.82,6.78-18.57,2.35-2,4.8,24.85,3.14Zm-.19-.46L434,96.6l-11.76-1.49-4,9.6Zm-5.82-14-2.79-6.7-3.09,7.44Zm-14.75,22.07-3.69,8.88h31.3l-2.36-5.68Z"/></clipPath><clipPath id="clip-path-30"><path class="cls-1" d="M108,30.71,96.64,29.27l2.07-5,6.29-.79Zm2.82,6.79L92.24,39.84l-2,4.8,24.85,3.14Zm-.19-.47-2.42-5.82L96.45,29.72l-4,9.6ZM104.8,23,102,16.32l-3.09,7.44ZM90.06,45.09,86.37,54h31.3l-2.36-5.68Z"/></clipPath><clipPath id="clip-path-31"><path class="cls-1" d="M238.32,96.23,227,94.8l2.07-5,6.29-.79Zm2.82,6.79-18.57,2.34-2,4.81,24.85,3.14Zm-.19-.46-2.42-5.82-11.76-1.49-4,9.6Zm-5.82-14-2.79-6.7-3.09,7.44Zm-14.75,22.07-3.69,8.88H248l-2.36-5.69Z"/></clipPath><clipPath id="clip-path-32"><path class="cls-1" d="M564.12,96.14,552.76,94.7l2.07-5,6.29-.8Zm2.82,6.79-18.57,2.34-2,4.8,24.85,3.15Zm-.19-.46-2.42-5.82-11.76-1.49-4,9.6Zm-5.82-14-2.79-6.7-3.09,7.44Zm-14.75,22.07-3.69,8.88h31.3l-2.36-5.69Z"/></clipPath><clipPath id="clip-path-33"><path class="cls-1" d="M433.8,30.71l-11.36-1.44,2.07-5,6.29-.79Zm2.82,6.79-18.57,2.34-2,4.8,24.85,3.14Zm-.19-.47L434,31.21l-11.76-1.49-4,9.6Zm-5.82-14-2.79-6.7-3.09,7.44ZM415.86,45.09,412.17,54h31.3l-2.36-5.68Z"/></clipPath><clipPath id="clip-path-34"><path class="cls-1" d="M108,96.17,96.64,94.73l2.07-5L105,89Zm2.82,6.79L92.24,105.3l-2,4.8,24.85,3.15Zm-.19-.46-2.42-5.82L96.45,95.19l-4,9.6Zm-5.83-14L102,81.79l-3.09,7.44ZM90.06,110.56l-3.69,8.88h31.3l-2.36-5.69Z"/></clipPath><clipPath id="clip-path-35"><path class="cls-1" d="M499,30.71,487.6,29.27l2.07-5,6.29-.79Zm2.82,6.79-18.57,2.34-2,4.8,24.85,3.14Zm-.19-.47-2.42-5.82-11.76-1.49-4,9.6Zm-5.82-14L493,16.32l-3.09,7.44ZM481,45.09,477.33,54h31.3l-2.36-5.68Z"/></clipPath><clipPath id="clip-path-36"><path class="cls-1" d="M303.48,30.71l-11.36-1.44,2.07-5,6.29-.79Zm2.82,6.79-18.57,2.34-2,4.8,24.85,3.14Zm-.19-.47-2.42-5.82-11.76-1.49-4,9.6Zm-5.82-14-2.79-6.7-3.09,7.44ZM285.54,45.09,281.85,54h31.3l-2.36-5.68Z"/></clipPath></defs><g id="Layer_11" data-name="Layer 11"><rect class="cls-2" width="595" height="419"/><rect class="cls-3" x="1" width="595" height="419"/></g><g id="Layer_16" data-name="Layer 16"><rect class="cls-4" x="555.2" y="327.02" width="5.88" height="5.88"/><g class="cls-5"><g id="Russia"><rect class="cls-6" x="552.45" y="275.17" width="12.99" height="39.72" transform="translate(853.97 -263.92) rotate(90)"/><rect class="cls-7" x="552.45" y="288.16" width="12.99" height="39.72" transform="translate(866.97 -250.92) rotate(90)"/><rect class="cls-8" x="552.45" y="301.16" width="12.99" height="39.72" transform="translate(879.96 -237.93) rotate(90)"/></g></g><rect class="cls-4" x="164.24" y="327.21" width="5.88" height="5.88"/><g class="cls-9"><g id="Azerbaijan_true_color" data-name="Azerbaijan true color"><rect class="cls-10" x="160.8" y="276.41" width="12.75" height="38.25" transform="translate(462.72 128.36) rotate(90)"/><rect class="cls-8" x="160.8" y="289.16" width="12.75" height="38.25" transform="translate(475.47 141.11) rotate(90)"/><rect class="cls-11" x="160.8" y="301.91" width="12.75" height="38.25" transform="translate(488.22 153.86) rotate(90)"/><polygon class="cls-12" points="170.25 311.95 169.47 310.06 167.63 310.94 168.42 309.06 166.5 308.37 168.39 307.6 167.51 305.75 169.4 306.54 170.08 304.62 170.85 306.51 172.7 305.64 171.91 307.52 173.83 308.21 171.94 308.98 172.81 310.82 170.93 310.03 170.25 311.95"/><path class="cls-12" d="M165.45,313.37a5.08,5.08,0,1,1,0-10.16,5,5,0,0,1,1.73.32,6.21,6.21,0,1,0,0,9.52A5,5,0,0,1,165.45,313.37Z"/></g></g><rect class="cls-4" x="490.04" y="392.63" width="5.88" height="5.88"/><g class="cls-13"><g id="Colombia"><rect class="cls-14" x="474.49" y="354.25" width="38.25" height="20.4"/><rect class="cls-7" x="474.49" y="374.01" width="38.25" height="10.2"/><rect class="cls-8" x="474.49" y="384.21" width="38.25" height="10.2"/></g></g><rect class="cls-4" x="164.24" y="392.63" width="5.88" height="5.88"/><g class="cls-15"><g id="Poland"><rect class="cls-6" x="147.96" y="354.38" width="38.25" height="19.12"/><rect class="cls-8" x="147.96" y="373.5" width="38.25" height="19.12"/></g></g><rect class="cls-4" x="33.92" y="327.16" width="5.88" height="5.88"/><g class="cls-16"><g id="India_true_color" data-name="India true color"><rect class="cls-17" x="17.46" y="289.47" width="38.25" height="12.75"/><rect class="cls-18" x="17.46" y="314.97" width="38.25" height="12.75"/><rect class="cls-12" x="17.46" y="301.02" width="38.25" height="15.3"/><polygon class="cls-7" points="39.5 312.56 37.5 310.44 38.07 313.3 36.87 310.65 36.48 313.53 36.2 310.63 34.9 313.23 35.58 310.4 33.5 312.44 35.06 309.99 32.43 311.24 34.7 309.42 31.81 309.75 34.55 308.77 31.71 308.14 34.62 308.11 32.14 306.59 34.9 307.5 33.05 305.26 35.36 307.02 34.33 304.3 35.95 306.71 35.87 303.81 36.62 306.62 37.48 303.84 37.27 306.74 38.99 304.39 37.85 307.07 40.24 305.4 38.29 307.57 41.09 306.77 38.55 308.19 41.45 308.34 38.59 308.85 41.29 309.94 38.41 309.49 40.61 311.4 38.04 310.05 39.5 312.56"/><circle class="cls-19" cx="36.58" cy="308.67" r="5.1"/></g></g><rect class="cls-4" x="294.56" y="392.63" width="5.88" height="5.88"/><g class="cls-20"><g id="Bangladesh_true_color" data-name="Bangladesh true color"><rect class="cls-21" x="280.3" y="354.93" width="38.25" height="38.25"/><circle class="cls-22" cx="294.96" cy="374.06" r="8.29"/></g></g><rect class="cls-4" x="33.92" y="392.51" width="5.88" height="5.88"/><g class="cls-23"><g id="UK"><rect class="cls-7" x="18.12" y="354.68" width="37.95" height="37.95"/><rect class="cls-12" x="34.92" y="345.89" width="4.32" height="56.54" transform="translate(-253.71 135.81) rotate(-45)"/><rect class="cls-12" x="34.48" y="345.41" width="4.32" height="56.54" transform="translate(274.97 83.54) rotate(45)"/><rect class="cls-8" x="25.13" y="352.47" width="1.79" height="22.77" transform="translate(-249.66 124.97) rotate(-45)"/><rect class="cls-8" x="46.03" y="371.66" width="1.97" height="22.77" transform="translate(-257.08 145.44) rotate(-45)"/><rect class="cls-8" x="46.03" y="351.42" width="1.97" height="22.77" transform="translate(270.32 73.01) rotate(45)"/><rect class="cls-8" x="25.8" y="372.93" width="1.97" height="22.77" transform="translate(279.59 93.62) rotate(45)"/><rect class="cls-12" x="32.03" y="354.68" width="10.12" height="37.95"/><rect class="cls-12" x="32.03" y="354.68" width="10.12" height="37.95" transform="translate(-336.56 410.74) rotate(-90)"/><rect class="cls-8" x="34.56" y="354.68" width="5.06" height="37.95"/><rect class="cls-8" x="34.56" y="354.68" width="5.06" height="37.95" transform="translate(-336.56 410.74) rotate(-90)"/></g></g><rect class="cls-4" x="229.4" y="327.25" width="5.88" height="5.88"/><g class="cls-24"><g id="Albania"><rect class="cls-8" x="213.22" y="289.12" width="38.25" height="38.25"/><path d="M243.75,301.4H237.5v.08c-.14,0-.29,0-.43-.05a2.5,2.5,0,0,0,.37-1.3,2.54,2.54,0,0,0-4.22-1.92h-1.76a2.54,2.54,0,0,0-4.22,1.92,2.5,2.5,0,0,0,.37,1.3c-.14,0-.29,0-.43.05v-.08h-6.25a3.39,3.39,0,0,0-.06.64,3.18,3.18,0,0,0,3.18,3.19,3.1,3.1,0,0,0,.69-.08,3.18,3.18,0,0,0,2.58,2.57A3.19,3.19,0,0,0,229,310l-2.61,2.61,1.8,1.8,2.33-2.32h.4l-1.11,3.87,2.55,3,2.55-3-1.11-3.87h.4l2.33,2.32,1.8-1.8L235.7,310a3.19,3.19,0,0,0,1.66-2.25,3.18,3.18,0,0,0,2.58-2.57,3.1,3.1,0,0,0,.69.08,3.18,3.18,0,0,0,3.18-3.19A3.39,3.39,0,0,0,243.75,301.4Z"/></g></g><rect class="cls-4" x="359.72" y="392.63" width="5.88" height="5.88"/><g class="cls-25"><g id="USA"><rect class="cls-6" x="345.64" y="355.12" width="38.25" height="38.25"/><rect class="cls-8" x="364.77" y="359.9" width="19.12" height="4.78"/><rect class="cls-8" x="364.77" y="369.46" width="19.12" height="4.78"/><rect class="cls-8" x="345.64" y="379.02" width="38.25" height="4.78"/><rect class="cls-8" x="345.64" y="388.58" width="38.25" height="4.78"/><rect class="cls-7" x="345.64" y="355.12" width="19.12" height="19.12"/><polygon class="cls-12" points="361.92 371.96 360.58 371.11 359.25 371.96 359.65 370.42 358.43 369.41 360.01 369.32 360.59 367.84 361.17 369.32 362.75 369.42 361.52 370.43 361.92 371.96"/><polygon class="cls-12" points="361.92 365.99 360.58 365.13 359.25 365.98 359.65 364.45 358.43 363.44 360.01 363.35 360.59 361.87 361.17 363.35 362.75 363.44 361.52 364.45 361.92 365.99"/><polygon class="cls-12" points="361.92 360.01 360.58 359.15 359.25 360 359.65 358.47 358.43 357.46 360.01 357.37 360.59 355.89 361.17 357.37 362.75 357.47 361.52 358.47 361.92 360.01"/><polygon class="cls-12" points="355.94 371.96 354.61 371.11 353.27 371.96 353.67 370.42 352.45 369.41 354.03 369.32 354.62 367.84 355.19 369.32 356.78 369.42 355.55 370.43 355.94 371.96"/><polygon class="cls-12" points="355.94 365.99 354.61 365.13 353.27 365.98 353.67 364.45 352.45 363.44 354.03 363.35 354.62 361.87 355.19 363.35 356.78 363.44 355.55 364.45 355.94 365.99"/><polygon class="cls-12" points="355.94 360.01 354.61 359.15 353.27 360 353.67 358.47 352.45 357.46 354.03 357.37 354.62 355.89 355.19 357.37 356.78 357.47 355.55 358.47 355.94 360.01"/><polygon class="cls-12" points="349.97 360.01 348.63 359.15 347.29 360 347.7 358.47 346.47 357.46 348.06 357.37 348.64 355.89 349.21 357.37 350.8 357.47 349.57 358.47 349.97 360.01"/><polygon class="cls-12" points="349.97 365.99 348.63 365.13 347.29 365.98 347.7 364.45 346.47 363.44 348.06 363.35 348.64 361.87 349.21 363.35 350.8 363.44 349.57 364.45 349.97 365.99"/><polygon class="cls-12" points="349.97 371.96 348.63 371.11 347.29 371.96 347.7 370.42 346.47 369.41 348.06 369.32 348.64 367.84 349.21 369.32 350.8 369.42 349.57 370.43 349.97 371.96"/></g></g><rect class="cls-4" x="359.72" y="327.16" width="5.88" height="5.88"/><g class="cls-26"><g id="Peru"><rect class="cls-8" x="343.46" y="289.65" width="12.75" height="38.25"/><rect class="cls-6" x="356.31" y="289.65" width="12.75" height="38.25"/><rect class="cls-8" x="368.96" y="289.65" width="12.75" height="38.25"/><path class="cls-27" d="M366.27,305.26a5.1,5.1,0,1,1-7.21-.18"/><rect class="cls-8" x="359.93" y="308.78" width="5.1" height="2.55"/><rect class="cls-28" x="359.93" y="306.23" width="2.55" height="2.55"/><ellipse class="cls-29" cx="362.58" cy="304.74" rx="2.55" ry="0.85"/></g></g><rect class="cls-4" x="424.88" y="392.7" width="5.88" height="5.88"/><g class="cls-30"><g id="Ireland_true_color" data-name="Ireland true color"><rect class="cls-31" x="408.7" y="354.6" width="12.75" height="38.25"/><rect class="cls-6" x="421.45" y="354.6" width="12.75" height="38.25"/><rect class="cls-32" x="434.2" y="354.6" width="12.75" height="38.25"/></g></g><rect class="cls-4" x="99.08" y="327.16" width="5.88" height="5.88"/><g class="cls-33"><g id="Germany"><rect x="82.8" y="289.65" width="38.25" height="12.75"/><rect class="cls-8" x="82.8" y="302.4" width="38.25" height="12.75"/><rect class="cls-14" x="82.8" y="315.15" width="38.25" height="12.75"/></g></g><rect class="cls-4" x="229.4" y="392.57" width="5.88" height="5.88"/><g class="cls-34"><g id="Argentina_true_color" data-name="Argentina true color"><rect class="cls-35" x="225.97" y="341.99" width="12.75" height="38.25" transform="translate(593.46 128.78) rotate(90)"/><rect class="cls-35" x="225.97" y="367.49" width="12.75" height="38.25" transform="translate(618.96 154.28) rotate(90)"/><rect class="cls-12" x="225.97" y="354.94" width="12.75" height="38.25" transform="translate(606.4 141.72) rotate(90)"/><polygon class="cls-14" points="235.55 377.83 233.48 376.84 232.72 379 231.63 376.98 229.75 378.28 230.06 376.01 227.76 375.95 229.35 374.29 227.53 372.9 229.78 372.49 229.13 370.3 231.2 371.29 231.96 369.13 233.04 371.15 234.93 369.85 234.62 372.12 236.91 372.18 235.33 373.83 237.15 375.23 234.9 375.63 235.55 377.83"/></g></g><rect class="cls-4" x="555.2" y="392.66" width="5.88" height="5.88"/><g class="cls-36"><g id="Morocco_true_color" data-name="Morocco true color"><rect class="cls-8" x="539.02" y="354.65" width="38.25" height="38.25"/><polyline class="cls-37" points="561.8 381.45 548.86 371.23 561.16 371.25"/><path class="cls-37" d="M558.09,378.36"/><polyline class="cls-37" points="560.52 371.06 567.42 371.37 554.15 381.45"/><polyline class="cls-37" points="561.9 375.96 563.74 382.63 558.03 378.73 552.26 382.54 554.21 375.9"/><polyline class="cls-37" points="552.87 380.18 558.14 364.92 561.8 376.35"/></g></g><rect class="cls-4" x="424.88" y="327.16" width="5.88" height="5.88"/><g class="cls-38"><g id="Turkey"><rect class="cls-8" x="411.91" y="289.64" width="37.51" height="37.51"/><path class="cls-12" d="M426.43,313.39a5,5,0,0,1,0-10,5.07,5.07,0,0,1,1.7.31,6.09,6.09,0,1,0,0,9.34A5.08,5.08,0,0,1,426.43,313.39Z"/><polygon class="cls-12" points="434.52 310.01 432.34 309.61 431.06 311.41 430.78 309.21 428.66 308.55 430.66 307.61 430.64 305.39 432.16 307 434.26 306.29 433.2 308.24 434.52 310.01"/></g></g><rect class="cls-4" x="99.08" y="392.63" width="5.88" height="5.88"/><g class="cls-39"><g id="China"><rect class="cls-8" x="84.27" y="354.6" width="38.25" height="38.25"/><polygon class="cls-14" points="99.49 380.25 95.26 377.53 91.01 380.23 92.3 375.37 88.41 372.16 93.44 371.88 95.28 367.19 97.11 371.88 102.13 372.19 98.23 375.38 99.49 380.25"/><polygon class="cls-14" points="105.7 367.48 104.69 366.12 103.04 366.46 104.02 365.08 103.19 363.61 104.8 364.12 105.94 362.87 105.95 364.56 107.5 365.26 105.89 365.8 105.7 367.48"/><polygon class="cls-14" points="112.89 370.33 111.21 370.1 110.3 371.53 110 369.87 108.36 369.45 109.85 368.64 109.74 366.95 110.97 368.12 112.54 367.5 111.81 369.02 112.89 370.33"/><polygon class="cls-14" points="112.16 377.95 110.73 377.03 109.3 377.94 109.73 376.31 108.43 375.23 110.12 375.13 110.74 373.56 111.36 375.13 113.05 375.24 111.73 376.31 112.16 377.95"/><polygon class="cls-14" points="108.73 382.39 107.11 382.9 106.89 384.58 105.91 383.2 104.25 383.51 105.26 382.15 104.45 380.66 106.05 381.2 107.22 379.97 107.2 381.67 108.73 382.39"/></g></g><rect class="cls-4" x="490.04" y="327.16" width="5.88" height="5.88"/><g class="cls-40"><g id="Greece_true_color" data-name="Greece true color"><rect class="cls-41" x="476.7" y="289.65" width="38.25" height="38.25"/><rect class="cls-6" x="495.82" y="294.43" width="19.12" height="4.78"/><rect class="cls-6" x="495.82" y="303.99" width="19.12" height="4.78"/><rect class="cls-6" x="476.7" y="299.21" width="19.12" height="4.78"/><rect class="cls-6" x="476.7" y="313.56" width="38.25" height="4.78"/><rect class="cls-6" x="476.7" y="323.12" width="38.25" height="4.78"/><rect class="cls-6" x="476.7" y="296.82" width="19.12" height="4.78" transform="translate(187.05 785.47) rotate(-90)"/></g></g><rect class="cls-4" x="294.56" y="327.16" width="5.88" height="5.88"/><g class="cls-42"><g id="Romania"><rect class="cls-7" x="278.28" y="288.92" width="12.75" height="38.25"/><rect class="cls-14" x="291.03" y="288.92" width="12.75" height="38.25"/><rect class="cls-8" x="303.78" y="288.92" width="12.75" height="38.25"/></g></g><rect class="cls-4" x="555.2" y="53.82" width="5.88" height="5.88"/><g class="cls-43"><g id="Russia-2" data-name="Russia"><rect class="cls-6" x="552.45" y="1.98" width="12.99" height="39.72" transform="translate(580.78 -537.11) rotate(90)"/><rect class="cls-7" x="552.45" y="14.97" width="12.99" height="39.72" transform="translate(593.77 -524.11) rotate(90)"/><rect class="cls-8" x="552.45" y="27.96" width="12.99" height="39.72" transform="translate(606.77 -511.12) rotate(90)"/></g></g><rect class="cls-4" x="164.24" y="54.02" width="5.88" height="5.88"/><g class="cls-44"><g id="Azerbaijan_true_color-2" data-name="Azerbaijan true color"><rect class="cls-10" x="160.8" y="3.22" width="12.75" height="38.25" transform="translate(189.53 -144.83) rotate(90)"/><rect class="cls-8" x="160.8" y="15.97" width="12.75" height="38.25" transform="translate(202.28 -132.08) rotate(90)"/><rect class="cls-11" x="160.8" y="28.72" width="12.75" height="38.25" transform="translate(215.03 -119.33) rotate(90)"/><polygon class="cls-12" points="170.25 38.76 169.47 36.88 167.63 37.75 168.42 35.87 166.5 35.18 168.39 34.41 167.51 32.56 169.4 33.35 170.08 31.43 170.85 33.32 172.7 32.45 171.91 34.33 173.83 35.02 171.94 35.79 172.81 37.63 170.93 36.84 170.25 38.76"/><path class="cls-12" d="M165.45,40.18a5.08,5.08,0,1,1,0-10.16,5,5,0,0,1,1.73.32,6.21,6.21,0,1,0,0,9.52A5,5,0,0,1,165.45,40.18Z"/></g></g><rect class="cls-4" x="490.04" y="119.44" width="5.88" height="5.88"/><g class="cls-45"><g id="Colombia-2" data-name="Colombia"><rect class="cls-14" x="474.49" y="81.06" width="38.25" height="20.4"/><rect class="cls-7" x="474.49" y="100.82" width="38.25" height="10.2"/><rect class="cls-8" x="474.49" y="111.02" width="38.25" height="10.2"/></g></g><rect class="cls-4" x="164.24" y="119.44" width="5.88" height="5.88"/><g class="cls-46"><g id="Poland-2" data-name="Poland"><rect class="cls-6" x="147.96" y="81.19" width="38.25" height="19.12"/><rect class="cls-8" x="147.96" y="100.31" width="38.25" height="19.12"/></g></g><rect class="cls-4" x="33.92" y="53.97" width="5.88" height="5.88"/><g class="cls-47"><g id="India_true_color-2" data-name="India true color"><rect class="cls-17" x="17.46" y="16.28" width="38.25" height="12.75"/><rect class="cls-18" x="17.46" y="41.78" width="38.25" height="12.75"/><rect class="cls-12" x="17.46" y="27.83" width="38.25" height="15.3"/><polygon class="cls-7" points="39.5 39.37 37.5 37.25 38.07 40.11 36.87 37.46 36.48 40.34 36.2 37.44 34.9 40.04 35.58 37.21 33.5 39.25 35.06 36.79 32.43 38.04 34.7 36.23 31.81 36.56 34.55 35.58 31.71 34.95 34.62 34.92 32.14 33.4 34.9 34.31 33.05 32.07 35.36 33.83 34.33 31.11 35.95 33.52 35.87 30.62 36.62 33.43 37.48 30.65 37.27 33.55 38.99 31.2 37.85 33.88 40.24 32.21 38.29 34.38 41.09 33.58 38.55 34.99 41.45 35.15 38.59 35.66 41.29 36.75 38.41 36.3 40.61 38.21 38.04 36.85 39.5 39.37"/><circle class="cls-19" cx="36.58" cy="35.48" r="5.1"/></g></g><rect class="cls-4" x="294.56" y="119.44" width="5.88" height="5.88"/><g class="cls-48"><g id="Bangladesh_true_color-2" data-name="Bangladesh true color"><rect class="cls-21" x="280.3" y="81.74" width="38.25" height="38.25"/><circle class="cls-22" cx="294.96" cy="100.87" r="8.29"/></g></g><rect class="cls-4" x="33.92" y="119.32" width="5.88" height="5.88"/><g class="cls-49"><g id="UK-2" data-name="UK"><rect class="cls-7" x="18.12" y="81.49" width="37.95" height="37.95"/><rect class="cls-12" x="34.92" y="72.7" width="4.32" height="56.54" transform="translate(-60.54 55.79) rotate(-45)"/><rect class="cls-12" x="34.48" y="72.22" width="4.32" height="56.54" transform="translate(81.79 3.52) rotate(45)"/><rect class="cls-8" x="25.13" y="79.28" width="1.79" height="22.77" transform="translate(-56.48 44.95) rotate(-45)"/><rect class="cls-8" x="46.03" y="98.47" width="1.97" height="22.77" transform="translate(-63.91 65.42) rotate(-45)"/><rect class="cls-8" x="46.03" y="78.23" width="1.97" height="22.77" transform="translate(77.14 -7) rotate(45)"/><rect class="cls-8" x="25.8" y="99.74" width="1.97" height="22.77" transform="translate(86.42 13.61) rotate(45)"/><rect class="cls-12" x="32.03" y="81.49" width="10.12" height="37.95"/><rect class="cls-12" x="32.03" y="81.49" width="10.12" height="37.95" transform="translate(-63.37 137.55) rotate(-90)"/><rect class="cls-8" x="34.56" y="81.49" width="5.06" height="37.95"/><rect class="cls-8" x="34.56" y="81.49" width="5.06" height="37.95" transform="translate(-63.37 137.55) rotate(-90)"/></g></g><rect class="cls-4" x="229.4" y="54.06" width="5.88" height="5.88"/><g class="cls-50"><g id="Albania-2" data-name="Albania"><rect class="cls-8" x="213.22" y="15.93" width="38.25" height="38.25"/><path d="M243.75,28.21H237.5v.08c-.14,0-.29,0-.43-.05a2.5,2.5,0,0,0,.37-1.3A2.54,2.54,0,0,0,233.22,25h-1.76a2.54,2.54,0,0,0-4.22,1.92,2.5,2.5,0,0,0,.37,1.3c-.14,0-.29,0-.43.05v-.08h-6.25a3.39,3.39,0,0,0-.06.64A3.18,3.18,0,0,0,224.05,32a3.1,3.1,0,0,0,.69-.08,3.18,3.18,0,0,0,2.58,2.57A3.21,3.21,0,0,0,229,36.78l-2.61,2.61,1.8,1.8,2.33-2.32h.4l-1.11,3.87,2.55,3,2.55-3-1.11-3.87h.4l2.33,2.32,1.8-1.8-2.61-2.61a3.21,3.21,0,0,0,1.66-2.25A3.18,3.18,0,0,0,239.94,32a3.1,3.1,0,0,0,.69.08,3.18,3.18,0,0,0,3.18-3.19A3.39,3.39,0,0,0,243.75,28.21Z"/></g></g><rect class="cls-4" x="359.72" y="119.44" width="5.88" height="5.88"/><g class="cls-51"><g id="USA-2" data-name="USA"><rect class="cls-6" x="345.64" y="81.92" width="38.25" height="38.25"/><rect class="cls-8" x="364.77" y="86.71" width="19.12" height="4.78"/><rect class="cls-8" x="364.77" y="96.27" width="19.12" height="4.78"/><rect class="cls-8" x="345.64" y="105.83" width="38.25" height="4.78"/><rect class="cls-8" x="345.64" y="115.39" width="38.25" height="4.78"/><rect class="cls-7" x="345.64" y="81.92" width="19.12" height="19.12"/><polygon class="cls-12" points="361.92 98.77 360.58 97.91 359.25 98.77 359.65 97.23 358.43 96.22 360.01 96.13 360.59 94.65 361.17 96.13 362.75 96.23 361.52 97.23 361.92 98.77"/><polygon class="cls-12" points="361.92 92.8 360.58 91.94 359.25 92.79 359.65 91.25 358.43 90.25 360.01 90.16 360.59 88.68 361.17 90.16 362.75 90.25 361.52 91.26 361.92 92.8"/><polygon class="cls-12" points="361.92 86.82 360.58 85.96 359.25 86.81 359.65 85.28 358.43 84.27 360.01 84.18 360.59 82.7 361.17 84.18 362.75 84.28 361.52 85.28 361.92 86.82"/><polygon class="cls-12" points="355.94 98.77 354.61 97.91 353.27 98.77 353.67 97.23 352.45 96.22 354.03 96.13 354.62 94.65 355.19 96.13 356.78 96.23 355.55 97.23 355.94 98.77"/><polygon class="cls-12" points="355.94 92.8 354.61 91.94 353.27 92.79 353.67 91.25 352.45 90.25 354.03 90.16 354.62 88.68 355.19 90.16 356.78 90.25 355.55 91.26 355.94 92.8"/><polygon class="cls-12" points="355.94 86.82 354.61 85.96 353.27 86.81 353.67 85.28 352.45 84.27 354.03 84.18 354.62 82.7 355.19 84.18 356.78 84.28 355.55 85.28 355.94 86.82"/><polygon class="cls-12" points="349.97 86.82 348.63 85.96 347.29 86.81 347.7 85.28 346.47 84.27 348.06 84.18 348.64 82.7 349.21 84.18 350.8 84.28 349.57 85.28 349.97 86.82"/><polygon class="cls-12" points="349.97 92.8 348.63 91.94 347.29 92.79 347.7 91.25 346.47 90.25 348.06 90.16 348.64 88.68 349.21 90.16 350.8 90.25 349.57 91.26 349.97 92.8"/><polygon class="cls-12" points="349.97 98.77 348.63 97.91 347.29 98.77 347.7 97.23 346.47 96.22 348.06 96.13 348.64 94.65 349.21 96.13 350.8 96.23 349.57 97.23 349.97 98.77"/></g></g><rect class="cls-4" x="359.72" y="53.97" width="5.88" height="5.88"/><g class="cls-52"><g id="Peru-2" data-name="Peru"><rect class="cls-8" x="343.46" y="16.46" width="12.75" height="38.25"/><rect class="cls-6" x="356.31" y="16.46" width="12.75" height="38.25"/><rect class="cls-8" x="368.96" y="16.46" width="12.75" height="38.25"/><path class="cls-27" d="M366.27,32.07a5.1,5.1,0,1,1-7.21-.18"/><rect class="cls-8" x="359.93" y="35.58" width="5.1" height="2.55"/><rect class="cls-28" x="359.93" y="33.03" width="2.55" height="2.55"/><ellipse class="cls-29" cx="362.58" cy="31.55" rx="2.55" ry="0.85"/></g></g><rect class="cls-4" x="424.88" y="119.51" width="5.88" height="5.88"/><g class="cls-53"><g id="Ireland_true_color-2" data-name="Ireland true color"><rect class="cls-31" x="408.7" y="81.41" width="12.75" height="38.25"/><rect class="cls-6" x="421.45" y="81.41" width="12.75" height="38.25"/><rect class="cls-32" x="434.2" y="81.41" width="12.75" height="38.25"/></g></g><rect class="cls-4" x="99.08" y="53.97" width="5.88" height="5.88"/><g class="cls-54"><g id="Germany-2" data-name="Germany"><rect x="82.8" y="16.46" width="38.25" height="12.75"/><rect class="cls-8" x="82.8" y="29.21" width="38.25" height="12.75"/><rect class="cls-14" x="82.8" y="41.96" width="38.25" height="12.75"/></g></g><rect class="cls-4" x="229.4" y="119.37" width="5.88" height="5.88"/><g class="cls-55"><g id="Argentina_true_color-2" data-name="Argentina true color"><rect class="cls-35" x="225.97" y="68.8" width="12.75" height="38.25" transform="translate(320.27 -144.41) rotate(90)"/><rect class="cls-35" x="225.97" y="94.3" width="12.75" height="38.25" transform="translate(345.76 -118.92) rotate(90)"/><rect class="cls-12" x="225.97" y="81.75" width="12.75" height="38.25" transform="translate(333.21 -131.47) rotate(90)"/><polygon class="cls-14" points="235.55 104.64 233.48 103.64 232.72 105.81 231.63 103.79 229.75 105.09 230.06 102.82 227.76 102.76 229.35 101.1 227.53 99.71 229.78 99.3 229.13 97.1 231.2 98.1 231.96 95.94 233.04 97.96 234.93 96.66 234.62 98.93 236.91 98.98 235.33 100.64 237.15 102.03 234.9 102.44 235.55 104.64"/></g></g><rect class="cls-4" x="555.2" y="119.47" width="5.88" height="5.88"/><g class="cls-56"><g id="Morocco_true_color-2" data-name="Morocco true color"><rect class="cls-8" x="539.02" y="81.46" width="38.25" height="38.25"/><polyline class="cls-37" points="561.8 108.26 548.86 98.04 561.16 98.06"/><path class="cls-37" d="M558.09,105.17"/><polyline class="cls-37" points="560.52 97.87 567.42 98.18 554.15 108.26"/><polyline class="cls-37" points="561.9 102.77 563.74 109.44 558.03 105.54 552.26 109.35 554.21 102.71"/><polyline class="cls-37" points="552.87 106.98 558.14 91.73 561.8 103.16"/></g></g><rect class="cls-4" x="424.88" y="53.97" width="5.88" height="5.88"/><g class="cls-57"><g id="Turkey-2" data-name="Turkey"><rect class="cls-8" x="411.91" y="16.45" width="37.51" height="37.51"/><path class="cls-12" d="M426.43,40.2a5,5,0,0,1,0-10,5.07,5.07,0,0,1,1.7.31,6.09,6.09,0,1,0,0,9.34A5.08,5.08,0,0,1,426.43,40.2Z"/><polygon class="cls-12" points="434.52 36.82 432.34 36.41 431.06 38.22 430.78 36.02 428.66 35.36 430.66 34.41 430.64 32.2 432.16 33.81 434.26 33.1 433.2 35.05 434.52 36.82"/></g></g><rect class="cls-4" x="99.08" y="119.44" width="5.88" height="5.88"/><g class="cls-58"><g id="China-2" data-name="China"><rect class="cls-8" x="84.27" y="81.41" width="38.25" height="38.25"/><polygon class="cls-14" points="99.49 107.06 95.26 104.34 91.01 107.04 92.3 102.17 88.41 98.97 93.44 98.69 95.28 94 97.11 98.69 102.13 99 98.23 102.19 99.49 107.06"/><polygon class="cls-14" points="105.7 94.29 104.69 92.93 103.04 93.27 104.02 91.89 103.19 90.42 104.8 90.93 105.94 89.68 105.95 91.37 107.5 92.07 105.89 92.61 105.7 94.29"/><polygon class="cls-14" points="112.89 97.14 111.21 96.91 110.3 98.34 110 96.68 108.36 96.26 109.85 95.45 109.74 93.76 110.97 94.93 112.54 94.31 111.81 95.83 112.89 97.14"/><polygon class="cls-14" points="112.16 104.76 110.73 103.84 109.3 104.75 109.73 103.11 108.43 102.04 110.12 101.94 110.74 100.36 111.36 101.94 113.05 102.05 111.73 103.12 112.16 104.76"/><polygon class="cls-14" points="108.73 109.2 107.11 109.71 106.89 111.39 105.91 110 104.25 110.32 105.26 108.96 104.45 107.47 106.05 108.01 107.22 106.78 107.2 108.47 108.73 109.2"/></g></g><rect class="cls-4" x="490.04" y="53.97" width="5.88" height="5.88"/><g class="cls-59"><g id="Greece_true_color-2" data-name="Greece true color"><rect class="cls-41" x="476.7" y="16.46" width="38.25" height="38.25"/><rect class="cls-6" x="495.82" y="21.24" width="19.12" height="4.78"/><rect class="cls-6" x="495.82" y="30.8" width="19.12" height="4.78"/><rect class="cls-6" x="476.7" y="26.02" width="19.12" height="4.78"/><rect class="cls-6" x="476.7" y="40.37" width="38.25" height="4.78"/><rect class="cls-6" x="476.7" y="49.93" width="38.25" height="4.78"/><rect class="cls-6" x="476.7" y="23.63" width="19.12" height="4.78" transform="translate(460.24 512.28) rotate(-90)"/></g></g><rect class="cls-4" x="294.56" y="53.97" width="5.88" height="5.88"/><g class="cls-60"><g id="Romania-2" data-name="Romania"><rect class="cls-7" x="278.28" y="15.72" width="12.75" height="38.25"/><rect class="cls-14" x="291.03" y="15.72" width="12.75" height="38.25"/><rect class="cls-8" x="303.78" y="15.72" width="12.75" height="38.25"/></g></g><path class="cls-61" d="M171.65,192.87v28H167V208.75H153.8v12.14h-4.71v-28h4.71V204.3H167V192.87Z"/><path class="cls-61" d="M176.48,210.85c0-6.17,3.78-10.46,9.16-10.46a7.92,7.92,0,0,1,6.72,3.45v-3h4.11v20.08h-4.11v-3a7.93,7.93,0,0,1-6.72,3.44C180.26,221.31,176.48,217.07,176.48,210.85Zm15.62,0c0-3.95-2.18-6.34-5.5-6.34s-5.75,2.6-5.75,6.34,2.31,6.35,5.75,6.35S192.1,214.8,192.1,210.85Z"/><path class="cls-61" d="M222.09,210.85c0,6.22-3.74,10.46-9.11,10.46a8,8,0,0,1-6.47-3.06v10h-4.37V200.81h4.07v3a8,8,0,0,1,6.77-3.45C218.35,200.39,222.09,204.68,222.09,210.85Zm-4.37,0c0-3.74-2.31-6.34-5.71-6.34s-5.5,2.39-5.5,6.34,2.18,6.35,5.5,6.35S217.72,214.63,217.72,210.85Z"/><path class="cls-61" d="M246.33,210.85c0,6.22-3.74,10.46-9.12,10.46a8,8,0,0,1-6.47-3.06v10h-4.37V200.81h4.08v3a8,8,0,0,1,6.76-3.45C242.59,200.39,246.33,204.68,246.33,210.85Zm-4.37,0c0-3.74-2.31-6.34-5.71-6.34s-5.51,2.39-5.51,6.34,2.19,6.35,5.51,6.35S242,214.63,242,210.85Z"/><path class="cls-61" d="M268.12,200.81l-8.27,21c-2,5-4.29,6.72-8,6.72a12.65,12.65,0,0,1-3.07-.38l.63-4.16a11.56,11.56,0,0,0,2.39.29c1.77,0,2.73-.62,3.91-3.57l-8.07-19.91h4.67l5.63,14.66,5.54-14.66Z"/><path class="cls-61" d="M303.7,192.87v28H299V208.75H285.85v12.14h-4.71v-28h4.71V204.3H299V192.87Z"/><path class="cls-61" d="M308.53,210.85c0-6.17,4.15-10.46,10.16-10.46s10.12,4.29,10.12,10.46-4.11,10.5-10.12,10.5S308.53,217.07,308.53,210.85Zm15.92,0c0-3.74-2.36-6.34-5.76-6.34s-5.8,2.6-5.8,6.34,2.36,6.35,5.8,6.35S324.45,214.63,324.45,210.85Z"/><path class="cls-61" d="M337.51,191.4v23.4c0,1.6.63,2.27,2,2.27a3.55,3.55,0,0,0,1.39-.25l.46,3.82a9,9,0,0,1-3.11.46c-3.49,0-5.08-1.59-5.08-5.5V191.4Z"/><path class="cls-61" d="M344,194.18a2.82,2.82,0,1,1,2.82,2.73A2.66,2.66,0,0,1,344,194.18Zm5,6.63v20.08H344.6V200.81Z"/><path class="cls-61" d="M373.21,191.4v29.49h-4.12v-3a7.92,7.92,0,0,1-6.72,3.44c-5.38,0-9.16-4.24-9.16-10.46s3.78-10.46,9.16-10.46a8,8,0,0,1,6.47,3.11V191.4Zm-4.37,19.45c0-3.95-2.18-6.34-5.5-6.34s-5.76,2.6-5.76,6.34,2.31,6.35,5.76,6.35S368.84,214.8,368.84,210.85Z"/><path class="cls-61" d="M377.45,210.85c0-6.17,3.78-10.46,9.15-10.46a7.91,7.91,0,0,1,6.72,3.45v-3h4.12v20.08h-4.12v-3a7.92,7.92,0,0,1-6.72,3.44C381.23,221.31,377.45,217.07,377.45,210.85Zm15.62,0c0-3.95-2.18-6.34-5.5-6.34s-5.76,2.6-5.76,6.34,2.31,6.35,5.76,6.35S393.07,214.8,393.07,210.85Z"/><path class="cls-61" d="M421.05,200.81l-8.28,21c-2,5-4.28,6.72-8,6.72a12.65,12.65,0,0,1-3.07-.38l.63-4.16a11.57,11.57,0,0,0,2.4.29c1.76,0,2.73-.62,3.9-3.57l-8.06-19.91h4.66l5.63,14.66,5.54-14.66Z"/><path class="cls-61" d="M423.27,215.89a11.25,11.25,0,0,0,5.67,1.47c2.52,0,4-.88,4-2.22,0-3.41-10.37-1.26-10.37-8.74,0-3.87,2.81-6,7.52-6a14.94,14.94,0,0,1,6.42,1.39l-1.09,3.91a10.74,10.74,0,0,0-5.25-1.35c-2.18,0-3.24.8-3.24,2,0,3.73,10.38,1.38,10.38,8.65,0,4-3.23,6.38-8.4,6.38a14.49,14.49,0,0,1-6.72-1.47Z"/><path class="cls-61" d="M441,218.37a3,3,0,1,1,3,3A2.89,2.89,0,0,1,441,218.37Zm.59-25.5h4.79l-.5,19.45h-3.74Z"/></g></svg>