<?xml version="1.0" encoding="utf-8"?>
<!-- Generator: Adobe Illustrator 25.0.1, SVG Export Plug-In . SVG Version: 6.00 Build 0)  -->
<svg version="1.1" id="Layer_1" xmlns="http://www.w3.org/2000/svg" xmlns:xlink="http://www.w3.org/1999/xlink" x="0px" y="0px"
	 viewBox="0 0 595 419" style="enable-background:new 0 0 595 419;" xml:space="preserve">
<style type="text/css">
	.st0{fill:#470808;}
	.st1{fill:#FFFFFF;}
	.st2{fill:#F21313;}
</style>
<rect y="0.2" class="st0" width="594.9" height="418.8"/>
<path class="st1" d="M370.5,145.1c-0.8-2.4-3.4-3.7-5.8-2.8c-1.5,0.5-2.7,1.8-3,3.4c-1,4.7-5.5,18-13,18c-2.7,0-5.9-1.5-9.4-4.5
	c-6.2-5.3-14.1-8.1-22.3-8c-14.2,0-26.8,7.9-33.3,14.6c-2.4,2.4-4.3,5.2-5.8,8.2c-6.9-2.4-14.1-3.8-21.5-3.9
	c-13.2,0-23.1,5.4-28.5,15.8c-8.2,15.6-18.7,21.1-25.1,21.1c-3.4,0.1-6.6-1.6-8.4-4.5c-1.5-2.1-4.4-2.5-6.4-1
	c-1.7,1.2-2.3,3.5-1.6,5.4c0.6,1.3,14.3,32,44.5,32c8.1-0.2,16-2.1,23.2-5.7c18.6-8.9,30.3-18.8,34.7-29.5c0.5-1.1,0.8-2.2,1.1-3.3
	c7.3,5.7,18.9,12.5,32.7,12.5c6.3,0,12.6-1.4,18.2-4.2C371.7,194.1,378,166.2,370.5,145.1z"/>
<ellipse transform="matrix(0.1602 -0.9871 0.9871 0.1602 64.8498 374.8218)" class="st0" cx="252.7" cy="149.3" rx="6" ry="6"/>
<circle class="st0" cx="279.7" cy="140.6" r="6"/>
<path class="st0" d="M384.1,83.2c-1.5,0-3.1,0.2-4.6,0.4c-0.2-1-0.5-2-0.9-3l-0.4-2c-1.6-8-3.3-16.3-8.4-24.7
	c-7.8-12.7-22.2-22.8-35.1-24.5c-5.1-0.7-10.3-1-15.5-1c-15.5,0-31,2.9-44.2,5.6c-17.1,3.6-33.6,13.5-49.1,29.4
	c-7.3,7.5-11.5,15.4-14.9,23l-1.2,2.5c-4.4,9.6-8.6,18.7-11.5,29.6c-0.8,2.4-1.8,4.8-3,7.1c-3.3,6.7-8.4,16.8,2.1,25.6
	c7.6,6.4,19,5.4,25.5-2.2c2.2-2.6,22.6-25.8,52.6-25.8c15.8,0,31.9,6.4,47.7,19.1c7.8,6.2,19.2,5,25.4-2.8c0,0,0,0,0-0.1
	c6.9-8.7,3-15.8,0.1-20.9c-0.5-1-1.1-2-1.6-3c-0.6-1.5-0.9-3-1.1-4.5c-0.3-1.8-0.7-3.6-1.2-5.3c-0.4-1-0.8-2.1-1.1-3.1
	c-1.1-2.8-2.1-5.5-2.2-8.1l-0.1-2.3c-0.3-5.8-0.7-13.1,1.8-17.5c0.4-0.8,1.7-3,6.4-3c7.4,0,17.2,5.8,20.4,11.9
	c0.3,1.2,0.5,2.5,0.8,3.7c-11.5,7.5-14.7,22.8-7.3,34.3s22.8,14.7,34.3,7.3c11.5-7.5,14.7-22.8,7.3-34.3
	C400.4,87.4,392.5,83.2,384.1,83.2L384.1,83.2z M334.8,112.8c-1.4,1.8-3.9,2.2-5.8,0.9c-64.3-47.4-110,3-112,5.2
	c-1.5,1.7-4.1,1.9-5.8,0.4s-1.9-4.1-0.4-5.8c0.5-0.6,52.7-58.2,123-6.4C335.7,108.4,336.1,110.9,334.8,112.8L334.8,112.8z"/>
<path class="st1" d="M382.3,270.3c-9.1,43.1-41.3,70.2-54,79.6c-0.6-2.4-1.4-5.9-2.5-11.1c-0.2-0.9-0.3-1.6-0.4-1.9
	c-0.5-2.1-2.3-3.6-4.5-3.7s-4.1,1.3-4.7,3.4c-6.3,20.5-16.1,31-22.4,36c-2.2-14-9.5-30.3-15.9-42.4c-7.8-14.9-17.6-29.9-21.4-32.7
	c-2.2-1.8-5.3-1.5-7.1,0.7c-0.5,0.6-0.8,1.3-1,2c-0.6,2.2-0.4,8.1,0.8,22.9c-4.5-10.1-9.5-21.9-12.9-30.6c-1-2.4-3.6-3.6-6.1-2.9
	c-2,0.6-3.2,1.8-6,8.1c-1.9-8.7-2.2-17.6-0.8-26.4c0.3-1.8-0.3-3.5-1.6-4.7c-1.5-1.3-3.7-1.7-5.6-0.9c-2.3,0.9-4.5,2-6.6,3.3
	c-7.8-17.7-10.7-37.3-8.6-58.5l13.4-4.1c14.4,33.9,51.3,51.8,86.1,41c34.8-10.8,55-46.5,47.8-82.6l8.1-2.5
	C380.6,200,389.4,236.4,382.3,270.3z"/>
<g>
	<path class="st2" d="M104.3,107v-1.1c2.5-0.4,4.4-1.4,5.5-2.9c0.9-1.1,1.3-3.4,1.3-6.7V69.8c0-2.1-0.1-3.7-0.4-4.6
		c-0.2-1-0.7-1.8-1.3-2.5c-1.2-1.3-2.9-2.2-5.2-2.5V59h21.9v1.1c-2.5,0.4-4.4,1.4-5.6,2.9c-0.5,0.6-0.8,1.4-1,2.4s-0.3,2.4-0.3,4.3
		v11.7H144V69.8c0-2.1-0.1-3.7-0.4-4.6c-0.2-1-0.7-1.8-1.3-2.5c-1.2-1.3-2.9-2.2-5.2-2.5V59H159v1.1c-2.5,0.4-4.4,1.4-5.6,2.9
		c-0.5,0.6-0.8,1.4-1,2.4s-0.3,2.4-0.3,4.3v26.5c0,2,0.1,3.5,0.4,4.5s0.7,1.9,1.3,2.6c1.2,1.3,2.9,2.2,5.2,2.5v1.1h-21.9v-1.1
		c2.5-0.4,4.4-1.4,5.5-2.9c0.9-1.1,1.3-3.4,1.3-6.7V83.1h-24.7v13.2c0,2,0.1,3.5,0.4,4.5s0.7,1.9,1.3,2.6c1.2,1.3,2.9,2.2,5.2,2.5
		v1.1C126.1,107,104.3,107,104.3,107z M109.2,105.2h10.3l-1.4-1c-0.8-0.6-1.3-1.1-1.5-1.4c-0.2-0.4-0.3-0.9-0.3-1.6
		c0-0.4,0-0.6,0-0.8c0-0.1,0-0.3,0-0.4v-0.6V66.6V66c0-0.1,0-0.3,0-0.4s0-0.4,0-0.7c0-0.7,0.1-1.2,0.3-1.6c0.2-0.4,0.7-0.8,1.5-1.4
		l2-1.5h-11.5l2,1.5c0.8,0.6,1.3,1.1,1.5,1.4c0.2,0.4,0.3,0.9,0.3,1.6c0,0.4,0,0.8,0,1.2v0.6v32.9v0.6c0,0.4,0,0.8,0,1.2
		c0,0.7-0.1,1.3-0.3,1.6s-0.7,0.8-1.5,1.4L109.2,105.2z M142.1,105.2h10.3l-1.4-1c-0.8-0.6-1.3-1.1-1.5-1.4
		c-0.2-0.4-0.3-0.9-0.3-1.6s0-1.1,0-1.2v-0.6V66.6V66c0-0.1,0-0.5,0-1.2s0.1-1.2,0.3-1.6c0.2-0.4,0.7-0.8,1.5-1.4l2-1.5h-11.5l2,1.5
		c0.8,0.6,1.3,1.1,1.5,1.4c0.2,0.4,0.3,0.9,0.3,1.6c0,0.4,0,0.8,0,1.2v0.6v32.9v0.6c0,0.4,0,0.8,0,1.2c0,0.7-0.1,1.3-0.3,1.6
		s-0.7,0.8-1.5,1.4L142.1,105.2z"/>
	<path class="st2" d="M162.8,92.6c0-2.7,0.7-5.2,2.2-7.6c1.5-2.3,3.4-4.2,5.9-5.5s5.2-2,8.2-2c2.2,0,4.3,0.4,6.3,1.1
		s3.7,1.8,5.2,3.2c1.5,1.4,2.7,3,3.5,4.9s1.2,3.8,1.2,5.9c0,2.7-0.7,5.2-2.2,7.6s-3.4,4.2-5.9,5.5s-5.2,2-8.1,2c-3,0-5.7-0.7-8.2-2
		s-4.5-3.2-6-5.5C163.6,97.9,162.8,95.4,162.8,92.6z M173.3,105.7c-1.1-0.9-1.9-1.6-2.3-2c-0.4-0.4-0.8-1-1.3-1.7
		c-1.5-2.4-2.2-5.6-2.2-9.4c0-6.4,2.2-10.9,6.5-13.4c-2,0.7-3.7,1.8-5.2,3.2c-1.5,1.4-2.6,3-3.4,4.7s-1.2,3.6-1.2,5.6
		c0,1.9,0.4,3.8,1.2,5.6c0.8,1.8,1.9,3.3,3.3,4.6c0.8,0.6,1.4,1.1,1.9,1.4C170.9,104.5,171.8,105,173.3,105.7z M170.5,92.4
		c0,2,0.2,3.9,0.6,5.6c0.4,1.7,1,3.2,1.8,4.4s1.7,2.1,2.8,2.8c1.1,0.7,2.2,1,3.5,1c1.2,0,2.4-0.3,3.5-1s2-1.6,2.7-2.8
		c0.8-1.2,1.3-2.6,1.7-4.4c0.4-1.7,0.6-3.6,0.6-5.6c0-2.7-0.4-5.1-1.1-7.2c-0.7-2.1-1.7-3.7-3-4.9s-2.8-1.7-4.5-1.7
		c-2.6,0-4.7,1.3-6.3,3.8C171.3,85,170.5,88.3,170.5,92.4z M182.7,106.3c3.1-1.4,5.5-3.2,7.1-5.6s2.4-5.1,2.4-8.1
		c0-3.1-0.8-5.9-2.4-8.3s-3.7-4.2-6.3-5.2c3.6,2.6,5.4,7.1,5.4,13.4c0,3.2-0.5,5.8-1.4,8c-0.9,2.1-2.3,3.9-4.3,5.4L182.7,106.3z"/>
	<path class="st2" d="M206.3,93.3v-0.9c-0.2-4.1-0.5-7.5-0.9-10.3c-0.4-2.7-1.1-6.1-2-10c-0.8-3.1-1.1-5.5-1.1-7.2
		c0-2,0.4-3.6,1.3-4.8c0.9-1.2,2-1.8,3.4-1.8c0.9,0,1.8,0.3,2.5,0.8s1.3,1.3,1.7,2.3s0.6,2.1,0.6,3.4s-0.4,3.7-1.3,7.3
		c-0.7,2.9-1.2,5.3-1.5,7.4c-0.4,2-0.7,4.1-0.9,6.2s-0.4,4.4-0.5,6.7v0.9H206.3z M202.4,103.1c0-0.8,0.2-1.6,0.6-2.3
		s0.9-1.2,1.6-1.6c0.7-0.4,1.5-0.6,2.3-0.6s1.6,0.2,2.3,0.6s1.2,1,1.6,1.6s0.6,1.4,0.6,2.3c0,1.2-0.4,2.3-1.3,3.2
		c-0.9,0.9-1.9,1.3-3.2,1.3c-1.2,0-2.3-0.4-3.2-1.3C202.8,105.4,202.4,104.3,202.4,103.1z M207.5,105.7v-5.3c0-0.6-0.3-0.9-0.8-0.9
		c-0.8,0-1.6,0.4-2.2,1.1c-0.6,0.7-1,1.5-1,2.5c0,0.9,0.3,1.7,1,2.4c0.6,0.7,1.4,1.1,2.2,1.1C207.2,106.6,207.5,106.3,207.5,105.7z
		 M206.7,84.1c0-1.1,0-2,0-2.7s0.1-1.6,0.1-2.6c0.1-1.1,0.1-2.2,0.2-3.5c0.2-2.3,0.5-5.3,0.9-8.9c0.2-1.1,0.2-2.1,0.2-2.9
		c0-2.4-0.7-3.7-2-3.7c-0.8,0-1.4,0.4-2,1.3c-0.5,0.9-0.8,2-0.8,3.4c0,1.3,0.3,3.3,0.8,5.9l0.9,4.5c0.6,3.2,1,5.1,1.1,5.7
		C206.5,81.6,206.6,82.8,206.7,84.1z"/>
	<path class="st2" d="M242.3,107v-1.1c2.5-0.4,4.4-1.4,5.5-2.9c0.9-1.1,1.3-3.4,1.3-6.7V69.8c0-2.1-0.1-3.7-0.4-4.6
		c-0.2-1-0.7-1.8-1.3-2.5c-1.2-1.3-2.9-2.2-5.2-2.5V59h21.9v1.1c-2.5,0.4-4.4,1.4-5.6,2.9c-0.5,0.6-0.8,1.4-1,2.4s-0.3,2.4-0.3,4.3
		v11.7h24.7V69.8c0-2.1-0.1-3.7-0.4-4.6c-0.2-1-0.7-1.8-1.3-2.5c-1.2-1.3-2.9-2.2-5.2-2.5V59h21.9v1.1c-2.5,0.4-4.4,1.4-5.6,2.9
		c-0.5,0.6-0.8,1.4-1,2.4s-0.3,2.4-0.3,4.3v26.5c0,2,0.1,3.5,0.4,4.5s0.7,1.9,1.3,2.6c1.2,1.3,2.9,2.2,5.2,2.5v1.1H275v-1.1
		c2.5-0.4,4.4-1.4,5.5-2.9c0.9-1.1,1.3-3.4,1.3-6.7V83.1h-24.7v13.2c0,2,0.1,3.5,0.4,4.5s0.7,1.9,1.3,2.6c1.2,1.3,2.9,2.2,5.2,2.5
		v1.1C264,107,242.3,107,242.3,107z M247.3,105.2h10.3l-1.4-1c-0.8-0.6-1.3-1.1-1.5-1.4c-0.2-0.4-0.3-0.9-0.3-1.6c0-0.4,0-0.6,0-0.8
		c0-0.1,0-0.3,0-0.4v-0.6V66.6V66c0-0.1,0-0.3,0-0.4s0-0.4,0-0.7c0-0.7,0.1-1.2,0.3-1.6c0.2-0.4,0.7-0.8,1.5-1.4l2-1.5h-11.5l2,1.5
		c0.8,0.6,1.3,1.1,1.5,1.4c0.2,0.4,0.3,0.9,0.3,1.6c0,0.4,0,0.8,0,1.2v0.6v32.9v0.6c0,0.4,0,0.8,0,1.2c0,0.7-0.1,1.3-0.3,1.6
		s-0.7,0.8-1.5,1.4L247.3,105.2z M280.1,105.2h10.3l-1.4-1c-0.8-0.6-1.3-1.1-1.5-1.4c-0.2-0.4-0.3-0.9-0.3-1.6s0-1.1,0-1.2v-0.6
		V66.6V66c0-0.1,0-0.5,0-1.2s0.1-1.2,0.3-1.6c0.2-0.4,0.7-0.8,1.5-1.4l2-1.5h-11.5l2,1.5c0.8,0.6,1.3,1.1,1.5,1.4
		c0.2,0.4,0.3,0.9,0.3,1.6c0,0.4,0,0.8,0,1.2v0.6v32.9v0.6c0,0.4,0,0.8,0,1.2c0,0.7-0.1,1.3-0.3,1.6s-0.7,0.8-1.5,1.4L280.1,105.2z"
		/>
	<path class="st2" d="M300.9,92.6c0-2.7,0.7-5.2,2.2-7.6s3.4-4.2,5.9-5.5s5.2-2,8.2-2c2.2,0,4.3,0.4,6.3,1.1s3.7,1.8,5.2,3.2
		s2.7,3,3.5,4.9s1.2,3.8,1.2,5.9c0,2.7-0.7,5.2-2.2,7.6s-3.4,4.2-5.9,5.5s-5.2,2-8.1,2c-3,0-5.7-0.7-8.2-2s-4.5-3.2-6-5.5
		S300.9,95.4,300.9,92.6z M311.3,105.7c-1.1-0.9-1.9-1.6-2.3-2s-0.8-1-1.3-1.7c-1.5-2.4-2.2-5.6-2.2-9.4c0-6.4,2.2-10.9,6.5-13.4
		c-2,0.7-3.7,1.8-5.2,3.2s-2.6,3-3.4,4.7s-1.2,3.6-1.2,5.6c0,1.9,0.4,3.8,1.2,5.6s1.9,3.3,3.3,4.6c0.8,0.6,1.4,1.1,1.9,1.4
		S309.9,105,311.3,105.7z M308.6,92.4c0,2,0.2,3.9,0.6,5.6s1,3.2,1.8,4.4s1.7,2.1,2.8,2.8s2.2,1,3.5,1c1.2,0,2.4-0.3,3.5-1
		s2-1.6,2.7-2.8s1.3-2.6,1.7-4.4s0.6-3.6,0.6-5.6c0-2.7-0.4-5.1-1.1-7.2s-1.7-3.7-3-4.9s-2.8-1.7-4.5-1.7c-2.6,0-4.7,1.3-6.3,3.8
		S308.6,88.3,308.6,92.4z M320.8,106.3c3.1-1.4,5.5-3.2,7.1-5.6s2.4-5.1,2.4-8.1c0-3.1-0.8-5.9-2.4-8.3s-3.7-4.2-6.3-5.2
		c3.6,2.6,5.4,7.1,5.4,13.4c0,3.2-0.5,5.8-1.4,8s-2.3,3.9-4.3,5.4L320.8,106.3z"/>
	<path class="st2" d="M344.4,93.3v-0.9c-0.2-4.1-0.5-7.5-0.9-10.3s-1.1-6.1-2-10c-0.8-3.1-1.1-5.5-1.1-7.2c0-2,0.4-3.6,1.3-4.8
		s2-1.8,3.4-1.8c0.9,0,1.8,0.3,2.5,0.8s1.3,1.3,1.7,2.3s0.6,2.1,0.6,3.4s-0.4,3.7-1.3,7.3c-0.7,2.9-1.2,5.3-1.5,7.4
		s-0.7,4.1-0.9,6.2s-0.4,4.4-0.5,6.7v0.9H344.4z M340.4,103.1c0-0.8,0.2-1.6,0.6-2.3s0.9-1.2,1.6-1.6s1.5-0.6,2.3-0.6
		s1.6,0.2,2.3,0.6s1.2,1,1.6,1.6s0.6,1.4,0.6,2.3c0,1.2-0.4,2.3-1.3,3.2s-1.9,1.3-3.2,1.3c-1.2,0-2.3-0.4-3.2-1.3
		S340.4,104.3,340.4,103.1z M345.5,105.7v-5.3c0-0.6-0.3-0.9-0.8-0.9c-0.8,0-1.6,0.4-2.2,1.1s-1,1.5-1,2.5c0,0.9,0.3,1.7,1,2.4
		s1.4,1.1,2.2,1.1C345.2,106.6,345.5,106.3,345.5,105.7z M344.7,84.1c0-1.1,0-2,0-2.7s0.1-1.6,0.1-2.6s0.1-2.2,0.2-3.5
		c0.2-2.3,0.5-5.3,0.9-8.9c0.2-1.1,0.2-2.1,0.2-2.9c0-2.4-0.7-3.7-2-3.7c-0.8,0-1.4,0.4-2,1.3s-0.8,2-0.8,3.4c0,1.3,0.3,3.3,0.8,5.9
		l0.9,4.5c0.6,3.2,1,5.1,1.1,5.7C344.5,81.6,344.6,82.8,344.7,84.1z"/>
	<path class="st2" d="M380.4,107v-1.1c2.5-0.4,4.4-1.4,5.5-2.9c0.9-1.1,1.3-3.4,1.3-6.7V69.8c0-2.1-0.1-3.7-0.4-4.6
		s-0.7-1.8-1.3-2.5c-1.2-1.3-2.9-2.2-5.2-2.5V59h21.9v1.1c-2.5,0.4-4.4,1.4-5.6,2.9c-0.5,0.6-0.8,1.4-1,2.4s-0.3,2.4-0.3,4.3v11.7
		H420V69.8c0-2.1-0.1-3.7-0.4-4.6s-0.7-1.8-1.3-2.5c-1.2-1.3-2.9-2.2-5.2-2.5V59H435v1.1c-2.5,0.4-4.4,1.4-5.6,2.9
		c-0.5,0.6-0.8,1.4-1,2.4s-0.3,2.4-0.3,4.3v26.5c0,2,0.1,3.5,0.4,4.5s0.7,1.9,1.3,2.6c1.2,1.3,2.9,2.2,5.2,2.5v1.1h-21.9v-1.1
		c2.5-0.4,4.4-1.4,5.5-2.9c0.9-1.1,1.3-3.4,1.3-6.7V83.1h-24.7v13.2c0,2,0.1,3.5,0.4,4.5s0.7,1.9,1.3,2.6c1.2,1.3,2.9,2.2,5.2,2.5
		v1.1C402.1,107,380.4,107,380.4,107z M385.3,105.2h10.3l-1.4-1c-0.8-0.6-1.3-1.1-1.5-1.4s-0.3-0.9-0.3-1.6c0-0.4,0-0.6,0-0.8
		s0-0.3,0-0.4v-0.6V66.6V66c0-0.1,0-0.3,0-0.4s0-0.4,0-0.7c0-0.7,0.1-1.2,0.3-1.6s0.7-0.8,1.5-1.4l2-1.5h-11.5l2,1.5
		c0.8,0.6,1.3,1.1,1.5,1.4s0.3,0.9,0.3,1.6c0,0.4,0,0.8,0,1.2v0.6v32.9v0.6c0,0.4,0,0.8,0,1.2c0,0.7-0.1,1.3-0.3,1.6
		s-0.7,0.8-1.5,1.4L385.3,105.2z M418.2,105.2h10.3l-1.4-1c-0.8-0.6-1.3-1.1-1.5-1.4s-0.3-0.9-0.3-1.6s0-1.1,0-1.2v-0.6V66.6V66
		c0-0.1,0-0.5,0-1.2s0.1-1.2,0.3-1.6s0.7-0.8,1.5-1.4l2-1.5h-11.5l2,1.5c0.8,0.6,1.3,1.1,1.5,1.4s0.3,0.9,0.3,1.6c0,0.4,0,0.8,0,1.2
		v0.6v32.9v0.6c0,0.4,0,0.8,0,1.2c0,0.7-0.1,1.3-0.3,1.6s-0.7,0.8-1.5,1.4L418.2,105.2z"/>
	<path class="st2" d="M438.9,92.6c0-2.7,0.7-5.2,2.2-7.6s3.4-4.2,5.9-5.5s5.2-2,8.2-2c2.2,0,4.3,0.4,6.3,1.1s3.7,1.8,5.2,3.2
		s2.7,3,3.5,4.9s1.2,3.8,1.2,5.9c0,2.7-0.7,5.2-2.2,7.6s-3.4,4.2-5.9,5.5s-5.2,2-8.1,2c-3,0-5.7-0.7-8.2-2s-4.5-3.2-6-5.5
		S438.9,95.4,438.9,92.6z M449.3,105.7c-1.1-0.9-1.9-1.6-2.3-2s-0.8-1-1.3-1.7c-1.5-2.4-2.2-5.6-2.2-9.4c0-6.4,2.2-10.9,6.5-13.4
		c-2,0.7-3.7,1.8-5.2,3.2s-2.6,3-3.4,4.7s-1.2,3.6-1.2,5.6c0,1.9,0.4,3.8,1.2,5.6s1.9,3.3,3.3,4.6c0.8,0.6,1.4,1.1,1.9,1.4
		S447.9,105,449.3,105.7z M446.6,92.4c0,2,0.2,3.9,0.6,5.6s1,3.2,1.8,4.4s1.7,2.1,2.8,2.8s2.2,1,3.5,1c1.2,0,2.4-0.3,3.5-1
		s2-1.6,2.7-2.8s1.3-2.6,1.7-4.4s0.6-3.6,0.6-5.6c0-2.7-0.4-5.1-1.1-7.2s-1.7-3.7-3-4.9s-2.8-1.7-4.5-1.7c-2.6,0-4.7,1.3-6.3,3.8
		S446.6,88.3,446.6,92.4z M458.8,106.3c3.1-1.4,5.5-3.2,7.1-5.6s2.4-5.1,2.4-8.1c0-3.1-0.8-5.9-2.4-8.3s-3.7-4.2-6.3-5.2
		c3.6,2.6,5.4,7.1,5.4,13.4c0,3.2-0.5,5.8-1.4,8s-2.3,3.9-4.3,5.4L458.8,106.3z"/>
	<path class="st2" d="M482.4,93.3v-0.9c-0.2-4.1-0.5-7.5-0.9-10.3s-1.1-6.1-2-10c-0.8-3.1-1.1-5.5-1.1-7.2c0-2,0.4-3.6,1.3-4.8
		s2-1.8,3.4-1.8c0.9,0,1.8,0.3,2.5,0.8s1.3,1.3,1.7,2.3s0.6,2.1,0.6,3.4s-0.4,3.7-1.3,7.3c-0.7,2.9-1.2,5.3-1.5,7.4
		s-0.7,4.1-0.9,6.2s-0.4,4.4-0.5,6.7v0.9H482.4z M478.4,103.1c0-0.8,0.2-1.6,0.6-2.3s0.9-1.2,1.6-1.6s1.5-0.6,2.3-0.6
		s1.6,0.2,2.3,0.6s1.2,1,1.6,1.6s0.6,1.4,0.6,2.3c0,1.2-0.4,2.3-1.3,3.2s-1.9,1.3-3.2,1.3c-1.2,0-2.3-0.4-3.2-1.3
		S478.4,104.3,478.4,103.1z M483.5,105.7v-5.3c0-0.6-0.3-0.9-0.8-0.9c-0.8,0-1.6,0.4-2.2,1.1s-1,1.5-1,2.5c0,0.9,0.3,1.7,1,2.4
		s1.4,1.1,2.2,1.1C483.3,106.6,483.5,106.3,483.5,105.7z M482.8,84.1c0-1.1,0-2,0-2.7s0.1-1.6,0.1-2.6s0.1-2.2,0.2-3.5
		c0.2-2.3,0.5-5.3,0.9-8.9c0.2-1.1,0.2-2.1,0.2-2.9c0-2.4-0.7-3.7-2-3.7c-0.8,0-1.4,0.4-2,1.3s-0.8,2-0.8,3.4c0,1.3,0.3,3.3,0.8,5.9
		l0.9,4.5c0.6,3.2,1,5.1,1.1,5.7C482.5,81.6,482.7,82.8,482.8,84.1z"/>
</g>
</svg>
